<?xml version="1.0" encoding="utf-8"?>
<!-- Generator: Adobe Illustrator 27.5.0, SVG Export Plug-In . SVG Version: 6.00 Build 0)  -->
<svg version="1.1" xmlns="http://www.w3.org/2000/svg" xmlns:xlink="http://www.w3.org/1999/xlink" x="0px" y="0px"
	 viewBox="0 0 3710 3710" style="enable-background:new 0 0 3710 3710;" xml:space="preserve">
<g id="Background">
	<g>
		<g>
			<rect style="fill:#FFFFFF;" width="3710" height="3710"/>
		</g>
	</g>
</g>
<g id="Illustration">
	<g>
		<linearGradient id="SVGID_1_" gradientUnits="userSpaceOnUse" x1="3628.3928" y1="4108.458" x2="1111.0959" y2="982.1334">
			<stop  offset="0" style="stop-color:#B37CFF"/>
			<stop  offset="1" style="stop-color:#F895E7"/>
		</linearGradient>
		<path style="opacity:0.3;fill:url(#SVGID_1_);" d="M2935.868,2875.549c-57.821,60.872-112.531,100.127-155.757,131.142
			c-508.105,364.571-1109.328,258.3-1237.105,232.348c-188.686-38.323-553.413-112.401-817.103-422.496
			c-398.942-469.147-336.821-1208.276-27.375-1696.186c56.603-89.247,355.594-584.588,963.292-664.025
			c367.773-48.074,796.477,48.886,1106.933,308.987C3420.43,1311.293,3374.038,2414.258,2935.868,2875.549z"/>
		<g>
			
				<linearGradient id="SVGID_00000164497925239530793080000005376177796078205342_" gradientUnits="userSpaceOnUse" x1="2241.5454" y1="1962.9076" x2="3088.9824" y2="1217.5718">
				<stop  offset="0" style="stop-color:#B37CFF"/>
				<stop  offset="1" style="stop-color:#F895E7"/>
			</linearGradient>
			<path style="fill:url(#SVGID_00000164497925239530793080000005376177796078205342_);" d="M3217.395,482.574
				c3.916-12.962-14.042-22.869-25.951-14.39c-120.934,86.095-414.967,348.185-376.704,840.853
				c48.008,618.125-113.829,832.419-306.37,957.246c0,0,256.695-48.276,429.899-265.158
				C3363.525,1468.627,3147.764,713.047,3217.395,482.574z"/>
			<path style="fill:#FFFFFF;" d="M3117.81,668.449c-18.677,67.305-35.801,134.918-50.029,203.021
				c-14.64,68.019-26.882,136.43-36.63,205.111c-9.443,68.712-17.389,137.591-21.933,206.713
				c-4.903,69.096-6.364,138.35-7.549,207.892c-1.633,69.489-2.822,139.507-12.309,209.501
				c-9.393,69.856-28.605,139.712-62.079,204.226c-8.365,16.077-17.104,32.08-26.856,47.46
				c-9.423,15.549-19.653,30.728-30.197,45.737c-21.267,29.933-44.895,58.659-70.913,85.7
				c-52.206,53.973-114.028,100.878-181.322,139.636c-7.083,4.079-16.756,2.36-21.606-3.839c-4.762-6.087-3.102-14.231,3.666-18.386
				l0.048-0.029c16.05-9.832,31.947-19.813,47.261-30.381c7.759-5.177,15.229-10.646,22.818-15.988
				c7.34-5.588,14.939-10.928,22.067-16.71c28.966-22.696,56.017-47.153,80.803-73.251c49.821-51.924,90.785-110.698,122.89-172.279
				c15.651-30.963,28.615-62.911,38.671-95.657c10.028-32.756,17.146-66.275,22.048-100.206
				c9.815-67.9,11.654-137.183,13.865-206.648c2.316-69.477,5.197-139.271,11.397-208.801c2.991-34.769,6.706-69.477,11.139-104.098
				c2.101-17.323,4.59-34.601,7.043-51.881c2.645-17.257,5.401-34.496,8.319-51.71c11.819-68.839,26.07-137.294,42.81-205.225
				c17.119-67.854,36.323-135.261,58.514-201.865c0.635-1.904,2.943-2.974,5.157-2.39
				C3117.053,664.668,3118.321,666.596,3117.81,668.449z"/>
		</g>
		<g>
			<g>
				
					<linearGradient id="SVGID_00000173131181474250822280000000033386081371164326_" gradientUnits="userSpaceOnUse" x1="-3527.0762" y1="-2239.5603" x2="-2327.7876" y2="-2239.5603" gradientTransform="matrix(-0.2775 -0.9608 -0.9608 0.2775 -177.156 -1052.7916)">
					<stop  offset="0" style="stop-color:#B37CFF"/>
					<stop  offset="1" style="stop-color:#F895E7"/>
				</linearGradient>
				<path style="fill:url(#SVGID_00000173131181474250822280000000033386081371164326_);" d="M2618.449,1783.389
					c7.145,19.335,31.715,25.088,46.885,11.134c83.709-76.997,300.695-316.096,276.668-707.989
					c-20.29-330.936,0.156-512.311,15.144-594.006c3.169-17.275-17.557-28.555-30.366-16.539
					C2785.457,608.564,2359.539,1082.792,2618.449,1783.389z"/>
				<path style="fill:#FFFFFF;" d="M2646.359,1783.371c0.428,0.28,0.887,0.521,1.379,0.721c4.116,1.675,8.812-0.304,10.487-4.42
					c1.899-4.667,189.821-471.965,182.395-933.383c-0.073-4.44-3.732-7.985-8.177-7.918c-4.445,0.073-7.988,3.732-7.918,8.178
					c7.373,458.06-179.321,922.421-181.206,927.057C2641.841,1777.23,2643.2,1781.305,2646.359,1783.371z"/>
			</g>
		</g>
		<g>
			<path style="fill:#FFFFFF;" d="M2361.072,3243.393c-82.479,1.412-150.731-64.539-152.143-147.013l-8.435-492.657l343.075-5.874
				l8.435,492.657c1.412,82.474-64.543,150.723-147.021,152.135L2361.072,3243.393z"/>
			<path style="fill:#FFFFFF;" d="M1718.84,3254.39c-82.478,1.412-150.731-64.539-152.143-147.013l-8.435-492.657l343.075-5.874
				l8.435,492.657c1.412,82.474-64.543,150.723-147.021,152.135L1718.84,3254.39z"/>
			<path style="fill:#FFFFFF;" d="M2897.271,2598.875l-6.058,45.403c-20.884,156.104-150.358,271.404-307.868,274.1l-1067.588,18.28
				c-157.51,2.697-290.856-108.102-317.071-263.4l-7.609-45.169c-14.11-83.274-0.281-170.316,38.794-245.195l26.875-51.442
				c24.644-47.12,29.203-103.122,12.443-153.571l-55.5-167.641c-39.173-118.424-19.679-249.881,52.124-351.838l14.232-20.175
				c33.609-47.768,44.364-107.5,29.56-163.994l-80.267-305.833c-27.493-104.87-5.732-214.536,59.747-300.983
				c65.482-86.366,165.178-136.995,273.534-138.851l284.394-4.869c2.464,23.677,22.771,40.791,47.143,40.374l236.637-4.051
				c24.373-0.417,44.081-18.217,45.733-41.964l284.394-4.869c108.355-1.855,209.726,45.331,278.127,129.406
				c68.4,84.154,93.903,193.011,70.015,298.761l-69.75,308.401c-12.944,56.97-0.068,116.296,35.156,162.887l14.831,19.596
				c75.333,99.438,99.235,230.232,64.22,349.841l-49.81,169.529c-14.94,50.992-8.466,106.805,17.776,153.054l28.62,50.492
				C2891.721,2428.649,2908.522,2515.166,2897.271,2598.875z"/>
			
				<linearGradient id="SVGID_00000157304279880197216220000004550539158435386525_" gradientUnits="userSpaceOnUse" x1="4951.1455" y1="-3704.4128" x2="3407.6809" y2="-895.8164" gradientTransform="matrix(0.997 -0.0772 0.0772 0.997 132.6671 -109.5944)">
				<stop  offset="0" style="stop-color:#FDF53F"/>
				<stop  offset="1" style="stop-color:#D93C65"/>
			</linearGradient>
			<path style="fill:url(#SVGID_00000157304279880197216220000004550539158435386525_);" d="M2764.106,2403.893l-28.618-50.487
				c-39.563-69.796-49.146-152.645-26.558-229.631l49.725-169.471c26.445-90.133,8.606-187.464-48.086-262.36l-14.888-19.668
				c-52.743-69.675-72.053-159.074-52.771-244.307l69.77-308.413c17.069-75.455-1.449-153.64-50.258-213.663
				c-48.808-60.022-122.465-93.372-199.815-92.048l-362.844,6.213l-172.54,2.954l-362.844,6.212
				c-77.35,1.325-149.822,37.176-196.547,98.834c-46.726,61.658-62.548,140.895-42.906,215.722l80.283,305.612
				c22.189,84.523,5.947,174.414-44.379,245.854l-14.207,20.108c-54.095,76.793-68.592,174.647-39.077,263.823l55.498,167.655
				c25.21,76.167,18.47,159.288-18.681,230.398l-26.873,51.434c-29.365,56.205-39.546,120.474-28.99,183.005l7.602,43.935
				c17.882,105.923,110.48,181.644,217.885,179.805l417.371-7.146l232.922-3.988l417.371-7.146
				c107.404-1.839,197.356-80.687,211.602-187.16l6.083-44.78C2807.743,2522.334,2795.378,2459.061,2764.106,2403.893z"/>
			<path style="fill:#FFFFFF;" d="M2410.205,1401.454c-0.596-34.82-29.306-62.565-64.125-61.968l-647.249,11.082
				c-34.819,0.596-62.562,29.307-61.966,64.127l14.851,867.349c0.596,34.82,29.306,62.564,64.125,61.968l647.249-11.082
				c34.82-0.596,62.562-29.307,61.966-64.127L2410.205,1401.454z"/>
			
				<linearGradient id="SVGID_00000106128409942674735280000004211529275456000182_" gradientUnits="userSpaceOnUse" x1="2936.085" y1="-1213.4939" x2="2642.7729" y2="-490.444" gradientTransform="matrix(0.9999 -0.0171 0.0171 0.9999 327.686 -385.9521)">
				<stop  offset="0" style="stop-color:#FDF53F"/>
				<stop  offset="1" style="stop-color:#D93C65"/>
			</linearGradient>
			<path style="fill:url(#SVGID_00000106128409942674735280000004211529275456000182_);" d="M2322.652,1501.024
				c0.389,22.737-17.727,41.484-40.464,41.873l-512.539,8.776c-22.737,0.389-41.484-17.727-41.873-40.464l-0.016-0.945
				c-0.389-22.737,17.727-41.485,40.464-41.874l512.539-8.775c22.737-0.39,41.484,17.727,41.874,40.463L2322.652,1501.024z"/>
			
				<linearGradient id="SVGID_00000031896803365933102890000002029998106630588036_" gradientUnits="userSpaceOnUse" x1="2998.2529" y1="-1188.2556" x2="2704.9409" y2="-465.2055" gradientTransform="matrix(0.9999 -0.0171 0.0171 0.9999 327.686 -385.9521)">
				<stop  offset="0" style="stop-color:#FDF53F"/>
				<stop  offset="1" style="stop-color:#D93C65"/>
			</linearGradient>
			<path style="fill:url(#SVGID_00000031896803365933102890000002029998106630588036_);" d="M2325.707,1679.487
				c0.389,22.737-17.727,41.484-40.463,41.873l-512.54,8.776c-22.737,0.389-41.484-17.727-41.874-40.464l-0.016-0.945
				c-0.389-22.737,17.727-41.484,40.464-41.873l512.539-8.776c22.737-0.389,41.484,17.727,41.874,40.464L2325.707,1679.487z"/>
			
				<linearGradient id="SVGID_00000043422415674470355390000005081618947639378096_" gradientUnits="userSpaceOnUse" x1="3248.106" y1="-1086.9158" x2="2954.792" y2="-363.8608" gradientTransform="matrix(0.9999 -0.0171 0.0171 0.9999 327.686 -385.9521)">
				<stop  offset="0" style="stop-color:#FDF53F"/>
				<stop  offset="1" style="stop-color:#D93C65"/>
			</linearGradient>
			<path style="fill:url(#SVGID_00000043422415674470355390000005081618947639378096_);" d="M2317.703,1907.092
				c-0.299-17.433-14.671-31.322-32.103-31.024l-186.724,3.197c-17.431,0.298-31.32,14.672-31.021,32.104l3.197,186.72
				c0.299,17.432,14.671,31.322,32.103,31.023l186.724-3.197c17.431-0.298,31.32-14.672,31.021-32.104L2317.703,1907.092z"/>
			
				<linearGradient id="SVGID_00000087409083349725867460000001038972988076787132_" gradientUnits="userSpaceOnUse" x1="2498.1602" y1="-274.0392" x2="2257.761" y2="478.7907" gradientTransform="matrix(0.9999 -0.0171 0.0171 0.9999 327.686 -385.9521)">
				<stop  offset="0" style="stop-color:#FDF53F"/>
				<stop  offset="1" style="stop-color:#D93C65"/>
			</linearGradient>
			<path style="fill:url(#SVGID_00000087409083349725867460000001038972988076787132_);" d="M1640.958,2696.375l7.013,409.606
				c0.636,37.136,32.303,65.762,69.441,65.126l43.912-0.752c37.136-0.636,71.694-30.396,71.058-67.531l-7.013-409.606
				L1640.958,2696.375z"/>
			
				<linearGradient id="SVGID_00000163035754373949206100000013174692368558798993_" gradientUnits="userSpaceOnUse" x1="3081.2227" y1="-87.8486" x2="2840.8235" y2="664.9815" gradientTransform="matrix(0.9999 -0.0171 0.0171 0.9999 327.686 -385.9521)">
				<stop  offset="0" style="stop-color:#FDF53F"/>
				<stop  offset="1" style="stop-color:#D93C65"/>
			</linearGradient>
			<path style="fill:url(#SVGID_00000163035754373949206100000013174692368558798993_);" d="M2283.425,2685.375l7.014,409.606
				c0.636,37.136,32.067,65.766,69.205,65.13l43.913-0.752c37.136-0.636,71.929-30.4,71.294-67.536l-7.013-409.606
				L2283.425,2685.375z"/>
			<g>
				<path style="fill:#FFFFFF;" d="M2194.726,544.784l-371.837,6.366c-92.875,1.59-166.844,78.136-165.253,171.011l1.209,70.646
					l708.102-12.124l-1.21-70.646C2364.147,617.163,2287.602,543.194,2194.726,544.784z M2130.792,760.019l-236.637,4.051
					c-24.372,0.417-44.679-16.697-47.143-40.374c-0.189-1.396-0.294-2.714-0.318-4.112c-0.441-25.771,20.138-45.644,45.91-46.085
					l60.023-1.028c-0.423-24.701,19.985-49.759,45.758-50.2l26.677-0.457c25.77-0.441,47.108,23.902,47.531,48.603l56.648-0.97
					c25.771-0.441,47.019,18.715,47.461,44.486c0.024,1.399-0.036,2.719-0.177,4.121
					C2174.873,741.802,2155.165,759.602,2130.792,760.019z"/>
			</g>
			<path style="fill:#FFFFFF;" d="M1483.694,1550.074c-0.349,0-0.705-0.055-1.054-0.17c-1.788-0.582-2.765-2.503-2.182-4.289
				c9.376-28.782-8.658-96.623-44.585-231.779c-12.668-47.658-27.027-101.674-43.304-165.65
				c-17.427-68.499-9.501-125.607,23.561-169.736c65.628-87.601,209.831-93.742,211.28-93.793c1.956-0.1,3.455,1.401,3.523,3.28
				c0.067,1.878-1.401,3.455-3.281,3.523c-1.416,0.05-142.438,6.096-206.091,91.093c-31.752,42.398-39.287,97.561-22.394,163.954
				c16.266,63.941,30.62,117.939,43.285,165.58c36.271,136.45,54.476,204.94,44.477,235.635
				C1486.463,1549.16,1485.129,1550.074,1483.694,1550.074z"/>
		</g>
		<g>
			
				<linearGradient id="SVGID_00000051368374372302908390000006488091757934197889_" gradientUnits="userSpaceOnUse" x1="2338.8096" y1="2576.054" x2="2947.4614" y2="2576.054">
				<stop  offset="0" style="stop-color:#18459F"/>
				<stop  offset="1" style="stop-color:#2874B5"/>
			</linearGradient>
			<path style="fill:url(#SVGID_00000051368374372302908390000006488091757934197889_);" d="M2359.906,2463.344
				c13.789-11.118,32.364-16.524,51.015-14.854l516.58,45.986c9.511,0.854,19.96,7.863,19.96,16.23v8.468
				c0,4.641-5.474,9.061-9.424,12.156c-3.951,3.094-10.829,4.571-16.099,4.061l-472.102-45.764
				c-12.59-1.222-25.549,2.529-34.658,10.23c-9.109,7.704-14.023,18.558-13.06,29.61l13.086,151.183
				c-14.822,26.824-33.489,26.161-48.123,19.134c-14.875-7.142-24.304-20.758-24.644-35.601l-3.615-157.559
				C2338.448,2490.219,2346.115,2474.461,2359.906,2463.344z"/>
			
				<linearGradient id="SVGID_00000086670874839273950150000011163397024403711420_" gradientUnits="userSpaceOnUse" x1="-6125.562" y1="2224.3643" x2="-6021.6563" y2="2224.3643" gradientTransform="matrix(-1 0 0 1 -2982.6731 0)">
				<stop  offset="0" style="stop-color:#18459F"/>
				<stop  offset="1" style="stop-color:#2874B5"/>
			</linearGradient>
			<path style="fill:url(#SVGID_00000086670874839273950150000011163397024403711420_);" d="M3142.889,2140.139
				c-9.162-3.117-51.593-37.402-68.79-9.621s-67.668,194.438-3.408,198.418C3134.951,2332.918,3142.889,2140.139,3142.889,2140.139z
				"/>
			
				<linearGradient id="SVGID_00000075121424052858810670000004092064783147973004_" gradientUnits="userSpaceOnUse" x1="-5930.1343" y1="3003.2437" x2="-5106.4805" y2="3003.2437" gradientTransform="matrix(-1 0 0 1 -2982.6731 0)">
				<stop  offset="0" style="stop-color:#2B3582"/>
				<stop  offset="1" style="stop-color:#150E42"/>
			</linearGradient>
			
				<rect x="2123.807" y="2763.295" style="fill:url(#SVGID_00000075121424052858810670000004092064783147973004_);" width="823.654" height="479.898"/>
			
				<linearGradient id="SVGID_00000138558906189601535980000017969094809063267761_" gradientUnits="userSpaceOnUse" x1="2508.6353" y1="2460.427" x2="2709.4429" y2="1456.3857">
				<stop  offset="0" style="stop-color:#2B3582"/>
				<stop  offset="1" style="stop-color:#150E42"/>
			</linearGradient>
			<path style="fill:url(#SVGID_00000138558906189601535980000017969094809063267761_);" d="M1720.581,2945.61
				c7.157-14.474,302.906-176.786,398.139-228.777c19.309-10.541,40.598-16.065,62.596-16.351l650.985-8.416
				c17.044-0.221,32.72-9.376,41.288-24.112l216.31-372.054l58.044-210.411c8.658-31.385,40.861-50.049,72.396-41.964l6.039,1.549
				c31.544,8.088,50.792,39.959,43.267,71.641l-44.743,188.389l-232.444,467.793c-8.007,16.114-24.28,26.469-42.269,26.896
				l-717.796,17.023c-19.261,0.456-38.199,5.047-55.531,13.463l-364.489,176.96c-24.535,11.913-53.853,8.005-74.407-9.924
				C1722.39,2983.729,1710.64,2965.717,1720.581,2945.61z"/>
			
				<linearGradient id="SVGID_00000022528293174782473770000015730718985357006240_" gradientUnits="userSpaceOnUse" x1="-6022.0298" y1="3239.7888" x2="-5007.7778" y2="3239.7888" gradientTransform="matrix(-1 0 0 1 -2982.6731 0)">
				<stop  offset="0" style="stop-color:#18459F"/>
				<stop  offset="1" style="stop-color:#2874B5"/>
			</linearGradient>
			<path style="fill:url(#SVGID_00000022528293174782473770000015730718985357006240_);" d="M2025.105,3239.195
				c0,18.936,14.951,34.629,32.906,34.629h948.463c17.954,0,32.883-15.694,32.883-34.629v-0.216
				c0-18.936-14.928-33.225-32.883-33.225H2058.01c-17.954,0-32.906,14.289-32.906,33.225V3239.195z"/>
			
				<linearGradient id="SVGID_00000111895803021206913420000005570724934692613302_" gradientUnits="userSpaceOnUse" x1="-5708.9053" y1="3028.77" x2="-5361.7451" y2="3028.77" gradientTransform="matrix(-1 0 0 1 -2982.6731 0)">
				<stop  offset="0" style="stop-color:#18459F"/>
				<stop  offset="1" style="stop-color:#2874B5"/>
			</linearGradient>
			<path style="fill:url(#SVGID_00000111895803021206913420000005570724934692613302_);" d="M2702.042,3107.051h-298.779
				c-13.338,0-24.19-10.852-24.19-24.19v-108.182c0-13.338,10.852-24.19,24.19-24.19h298.779c13.338,0,24.19,10.852,24.19,24.19
				v108.182C2726.232,3096.199,2715.38,3107.051,2702.042,3107.051z M2403.262,2953.892c-11.462,0-20.787,9.325-20.787,20.787
				v108.182c0,11.462,9.325,20.787,20.787,20.787h298.779c11.462,0,20.787-9.325,20.787-20.787v-108.182
				c0-11.462-9.325-20.787-20.787-20.787H2403.262z"/>
			<g>
				
					<linearGradient id="SVGID_00000137112673746752578730000005729322443253405352_" gradientUnits="userSpaceOnUse" x1="-5836.3633" y1="2415.5696" x2="-5868.228" y2="2463.3667" gradientTransform="matrix(-1 0 0 1 -2982.6731 0)">
					<stop  offset="0" style="stop-color:#CB236D"/>
					<stop  offset="1" style="stop-color:#4C246D"/>
				</linearGradient>
				<path style="fill:url(#SVGID_00000137112673746752578730000005729322443253405352_);" d="M2802.628,2509.11
					c0.167,0,0.337-0.008,0.508-0.029c66.667-7.952,130.563-133.781,133.25-139.137c1.05-2.087,0.207-4.629-1.882-5.678
					c-2.091-1.05-4.633-0.202-5.68,1.881c-0.639,1.272-64.525,127.115-126.691,134.529c-2.321,0.277-3.978,2.385-3.701,4.703
					C2798.689,2507.531,2800.515,2509.11,2802.628,2509.11z"/>
			</g>
			<g>
				
					<linearGradient id="SVGID_00000099650179083626934300000017198887428365058194_" gradientUnits="userSpaceOnUse" x1="-5644.1431" y1="2445.8125" x2="-5303.8887" y2="2445.8125" gradientTransform="matrix(-1 0 0 1 -2982.6731 0)">
					<stop  offset="0" style="stop-color:#F9B776"/>
					<stop  offset="1" style="stop-color:#F47960"/>
				</linearGradient>
				<path style="fill:url(#SVGID_00000099650179083626934300000017198887428365058194_);" d="M2661.47,2423.063
					c-9.867-4.615-98.752-7.053-136.131,0c-37.378,7.053-127.66,0-127.66,0s-36.677-29.623-53.604-11.285
					c0,0-21.16,15.517-21.16,23.981c0,8.464-7.759,29.276,9.874,33.682c17.633,4.405,55.015,0,55.015,0l237.694,16.396
					L2661.47,2423.063z"/>
				<g>
					<g>
						
							<linearGradient id="SVGID_00000088099435689422659860000006618173132851446951_" gradientUnits="userSpaceOnUse" x1="-4381.7969" y1="-147.3543" x2="-4350.6484" y2="-310.8837" gradientTransform="matrix(-0.9093 -0.4162 -0.4162 0.9093 -1153.4353 681.0758)">
							<stop  offset="0" style="stop-color:#F9B776"/>
							<stop  offset="1" style="stop-color:#F47960"/>
						</linearGradient>
						<path style="fill:url(#SVGID_00000088099435689422659860000006618173132851446951_);" d="M3002.904,2166.929
							c0,0-33.93,97.494-38.799,128.698c-0.739,4.733-4.584,8.322-9.391,8.755c-16.661,1.502-53.972-0.687-87.583-41.753
							c-5.444-6.653-6.316-15.902-2.445-23.495l45.146-88.555L3002.904,2166.929z"/>
						<g>
							
								<linearGradient id="SVGID_00000043445169346494554370000005843940360847158175_" gradientUnits="userSpaceOnUse" x1="-4297.5093" y1="-447.3769" x2="-4475.231" y2="-311.3929" gradientTransform="matrix(-0.9093 -0.4162 -0.4162 0.9093 -1153.4353 681.0758)">
								<stop  offset="0" style="stop-color:#F9B776"/>
								<stop  offset="1" style="stop-color:#F47960"/>
							</linearGradient>
							<path style="fill:url(#SVGID_00000043445169346494554370000005843940360847158175_);" d="M2972.572,2008.455
								c0,0-57.989,52-75.486,85.215c-17.497,33.215-34.964,51.97,1.305,76.87c36.269,24.9,78.453,20.462,111.977-5.258
								c0,0,52.123-39.418,55.607-63.736C3069.46,2077.228,2972.572,2008.455,2972.572,2008.455z"/>
							
								<linearGradient id="SVGID_00000083772552247472347530000012558286576542077839_" gradientUnits="userSpaceOnUse" x1="-4422.6143" y1="-555.0455" x2="-4257.1001" y2="-341.9461" gradientTransform="matrix(-0.9093 -0.4162 -0.4162 0.9093 -1153.4353 681.0758)">
								<stop  offset="0" style="stop-color:#2B3582"/>
								<stop  offset="1" style="stop-color:#150E42"/>
							</linearGradient>
							<path style="fill:url(#SVGID_00000083772552247472347530000012558286576542077839_);" d="M3008.074,2134.707l-1.791-2.015
								c-2.28-2.567-1.946-6.525,0.757-8.64c10.471-8.194,32.567-27.842,21.198-39.987c-14.651-15.652-79.43-62.921-83.243-95.327
								c-3.664-31.145,23.857-56.589,47.679-56.506c1.594,0.005,2.933,1.193,3.024,2.784l0.22,3.863
								c0.151,2.645,3.444,3.761,5.172,1.754l0,0c1.659-1.926,4.811-1.005,5.138,1.517c1.268,9.753,8.432,27.904,39.753,49.874
								c44.512,31.224,67.651,65.61,53.076,99.573c-0.926,2.158,0.801,4.383,3.133,4.107c4.591-0.545,10.805,1.058,15.528,11.028
								c8.213,17.338-10.579,43.961-50.814,54.522c-1.911,0.501-2.894,2.677-1.837,4.347c3.726,5.883,7.874,17.722-17.637,19.298
								c-26.388,1.63-41.794-6.545-47.429-10.342c-1.403-0.944-1.708-2.859-0.69-4.209l20.02-26.55
								c1.133-1.503,0.586-3.668-1.126-4.452L3008.074,2134.707z"/>
							
								<linearGradient id="SVGID_00000121251465176683484940000001753345078618389945_" gradientUnits="userSpaceOnUse" x1="-4319.5527" y1="-476.1895" x2="-4497.2749" y2="-340.2049" gradientTransform="matrix(-0.9093 -0.4162 -0.4162 0.9093 -1153.4353 681.0758)">
								<stop  offset="0" style="stop-color:#F9B776"/>
								<stop  offset="1" style="stop-color:#F47960"/>
							</linearGradient>
							<path style="fill:url(#SVGID_00000121251465176683484940000001753345078618389945_);" d="M3003.998,2140.378
								c0,0,29.768-36.545,43.043-16.404c13.275,20.142-30.922,42.062-46.585,36.771L3003.998,2140.378z"/>
						</g>
						
							<linearGradient id="SVGID_00000083781175502859646670000011057189653157309621_" gradientUnits="userSpaceOnUse" x1="2719.4292" y1="2297.281" x2="2845.3604" y2="2681.8813">
							<stop  offset="0" style="stop-color:#5AB6FF"/>
							<stop  offset="1" style="stop-color:#2F68E3"/>
						</linearGradient>
						<path style="fill:url(#SVGID_00000083781175502859646670000011057189653157309621_);" d="M2984.594,2276.625
							c0,0-104.313-62.176-161.267-38.862c-56.954,23.313-297.987,340.532-297.987,340.532l178.922,111.721
							C2704.262,2690.016,3112.405,2343.746,2984.594,2276.625z"/>
						
							<linearGradient id="SVGID_00000133529920582381230040000017793787076964280490_" gradientUnits="userSpaceOnUse" x1="-5307.1006" y1="2028.7275" x2="-5537.9976" y2="2375.0725" gradientTransform="matrix(-1 0 0 1 -2982.6731 0)">
							<stop  offset="0" style="stop-color:#F9B776"/>
							<stop  offset="1" style="stop-color:#F47960"/>
						</linearGradient>
						<path style="fill:url(#SVGID_00000133529920582381230040000017793787076964280490_);" d="M2517.273,2483.704
							c1.409-5.517,6.059-9.605,11.711-10.294l30.356-3.703c16.296-1.988,32.078,7.348,37.897,22.732
							c3.407,9.008,6.254,19.928,6.793,32.015c0,0,87.625,25.52,162.616-6.35c-0.958,23.156-4.259,53.205-12.972,87.203
							c-42.968-4.438-92.063-19.178-148.162-47.593l-82.899-59.361C2517.985,2495.038,2515.864,2489.221,2517.273,2483.704z"/>
						
							<linearGradient id="SVGID_00000030474323313449307050000015429257274898639539_" gradientUnits="userSpaceOnUse" x1="2880.2415" y1="2329.0818" x2="2808.7676" y2="1679.0061">
							<stop  offset="0" style="stop-color:#5AB6FF"/>
							<stop  offset="1" style="stop-color:#2F68E3"/>
						</linearGradient>
						<path style="fill:url(#SVGID_00000030474323313449307050000015429257274898639539_);" d="M2999.004,2283.22
							c0,0,51.536,61.435,14.166,143.09c-37.371,81.655-114.811,185.696-245.084,185.591c12.972-87.202,12.972-87.202,12.972-87.202
							S3003.547,2323.594,2999.004,2283.22z"/>
					</g>
					<g>
						
							<linearGradient id="SVGID_00000068667596614485476440000004957484477932376760_" gradientUnits="userSpaceOnUse" x1="-301.1131" y1="-460.4587" x2="-130.0281" y2="-460.4587" gradientTransform="matrix(-0.5755 -0.8178 -0.8178 0.5755 1210.4188 2968.6895)">
							<stop  offset="0" style="stop-color:#2B3582"/>
							<stop  offset="1" style="stop-color:#150E42"/>
						</linearGradient>
						<path style="fill:url(#SVGID_00000068667596614485476440000004957484477932376760_);" d="M1671.36,2809.221
							c14.796,25.427,40.704,69.394,62.34,103.204c13.005,20.324,22.922,30.315,30.139,35.01c-0.745,0.508-1.456,0.977-2.123,1.403
							c-3.559,2.273-8.294,1.412-10.942-1.937c-47.067-59.533-79.487-110.407-90.766-128.703c-2.332-3.783,0.089-8.719,4.487-9.041
							C1666.697,2808.998,1669.003,2809.055,1671.36,2809.221z"/>
						
							<linearGradient id="SVGID_00000031180009942663104670000014474236169827678388_" gradientUnits="userSpaceOnUse" x1="-130.597" y1="-746.6818" x2="-169.5472" y2="-625.7311" gradientTransform="matrix(-0.5755 -0.8178 -0.8178 0.5755 1210.4188 2968.6895)">
							<stop  offset="0" style="stop-color:#CB236D"/>
							<stop  offset="1" style="stop-color:#4C246D"/>
						</linearGradient>
						<path style="fill:url(#SVGID_00000031180009942663104670000014474236169827678388_);" d="M1733.701,2912.426
							c-21.636-33.81-47.544-77.777-62.34-103.204c45.495,3.219,117.619,64.302,117.619,64.302l14.866,21.125
							c-10.719,29.269-29.179,45.405-40.006,52.787C1756.623,2942.741,1746.706,2932.75,1733.701,2912.426z"/>
						
							<linearGradient id="SVGID_00000085238527807407572430000008109676296960833920_" gradientUnits="userSpaceOnUse" x1="-285.3168" y1="-540.8036" x2="-237.1254" y2="-540.8036" gradientTransform="matrix(-0.5755 -0.8178 -0.8178 0.5755 1210.4188 2968.6895)">
							<stop  offset="0" style="stop-color:#F9B776"/>
							<stop  offset="1" style="stop-color:#F47960"/>
						</linearGradient>
						<path style="fill:url(#SVGID_00000085238527807407572430000008109676296960833920_);" d="M1840.837,2873.936l-40.511,25.553
							c-4.387,2.767-10.178,2.102-13.771-1.715c-3.574-3.797-7.629-9.396-9.852-16.794c-1.368-4.552-0.188-9.477,3.125-12.824
							l33.275-33.631L1840.837,2873.936z"/>
					</g>
					
						<linearGradient id="SVGID_00000101098271449134274020000001447621684715043729_" gradientUnits="userSpaceOnUse" x1="-4696.4106" y1="1969.0536" x2="-5064.5879" y2="2521.3188" gradientTransform="matrix(-1 0 0 1 -2982.6731 0)">
						<stop  offset="0" style="stop-color:#2B3582"/>
						<stop  offset="1" style="stop-color:#150E42"/>
					</linearGradient>
					<path style="fill:url(#SVGID_00000101098271449134274020000001447621684715043729_);" d="M1799.409,2840.019
						c44.14-31.481,380.151-269.829,427.582-263.901c50.783,6.348,298.348,2.178,298.348,2.178l169.49,105.831
						c0,0-45.289,84.544-275.607,33.76l-177.419-8.761l-411.82,181.467c-2.879,1.269-6.252,0.217-7.899-2.465l-24.386-39.697
						C1795.965,2845.61,1796.714,2841.94,1799.409,2840.019z"/>
				</g>
				<path style="fill:#FFFFFF;" d="M2567.29,2455.707l9.25-25.904c0.369-1.033,1.444-1.637,2.519-1.416l13.524,2.783
					c0.64,0.132,1.188,0.541,1.497,1.118c0.309,0.574,0.346,1.258,0.102,1.864l-11.381,28.227c-0.224,0.556-0.665,0.996-1.22,1.219
					c-0.555,0.223-1.178,0.213-1.724-0.033l-11.394-5.108C2567.414,2457.988,2566.903,2456.789,2567.29,2455.707z"/>
			</g>
			
				<linearGradient id="SVGID_00000059992851385781998460000014379388066954585228_" gradientUnits="userSpaceOnUse" x1="2419.2188" y1="2618.3733" x2="3029.1462" y2="2618.3733">
				<stop  offset="0" style="stop-color:#18459F"/>
				<stop  offset="1" style="stop-color:#2874B5"/>
			</linearGradient>
			<path style="fill:url(#SVGID_00000059992851385781998460000014379388066954585228_);" d="M2440.313,2505.663
				c13.789-11.118,32.364-16.524,51.015-14.854l517.219,45.986c9.512,0.854,20.599,7.863,20.599,16.23v8.468
				c0,4.641-6.113,9.061-10.063,12.156c-3.951,3.094-11.148,4.571-16.418,4.061l-472.261-45.764
				c-12.59-1.222-25.629,2.529-34.738,10.23c-9.109,7.704-14.063,18.558-13.1,29.61l13.066,151.183
				c-14.822,26.824-33.5,26.161-48.133,19.134c-14.875-7.142-24.31-20.758-24.649-35.602l-3.617-157.559
				C2418.857,2532.539,2426.522,2516.781,2440.313,2505.663z"/>
		</g>
		
			<linearGradient id="SVGID_00000101078490454720575970000002170648532855297418_" gradientUnits="userSpaceOnUse" x1="3825.666" y1="-1504.4698" x2="1763.1299" y2="1395.3345">
			<stop  offset="0" style="stop-color:#FDF53F"/>
			<stop  offset="1" style="stop-color:#D93C65"/>
		</linearGradient>
		<path style="fill:url(#SVGID_00000101078490454720575970000002170648532855297418_);" d="M1452.75,3150.564
			c-205.993,0-340.717-39.235-430.171-121.222c-180.163-165.121-168.948-493.028-150.369-1036.285
			c9.985-291.942,22.41-655.274,6.897-1084.996l47.62-1.718c15.572,431.396,3.114,795.655-6.895,1088.343
			c-18.111,529.581-29.043,849.234,134.941,999.529c116.641,106.902,326.016,133.067,700.098,87.485l5.763,47.301
			C1643.431,3143.28,1541.463,3150.564,1452.75,3150.564z"/>
		<g>
			<g>
				
					<linearGradient id="SVGID_00000031195457606566650240000006859121584419633827_" gradientUnits="userSpaceOnUse" x1="1491.9974" y1="1428.1343" x2="823.0262" y2="2284.0242">
					<stop  offset="0" style="stop-color:#53EAC9"/>
					<stop  offset="0.9964" style="stop-color:#45AED8"/>
				</linearGradient>
				<path style="fill:url(#SVGID_00000031195457606566650240000006859121584419633827_);" d="M1488.9,1800.183l-37.452,9.137
					c-45.64,13.746-84.194,17.256-117.162,13.767c-102.938-10.894-151.258-90.194-189.517-140.625
					c-50.512-66.582-106.281-55.08-106.281-55.08l34.132,146.916c76.373,121.697,185.616,127.484,259.051,113.574
					c46.746-8.854,78.988-25.687,78.988-25.687C1496.625,1837.156,1488.9,1800.183,1488.9,1800.183z"/>
				
					<linearGradient id="SVGID_00000016060975168638697790000016549229907849517199_" gradientUnits="userSpaceOnUse" x1="633.2759" y1="1382.0354" x2="163.1593" y2="1983.5083" gradientTransform="matrix(0.9678 0.2516 -0.2516 0.9678 1418.6709 216.9008)">
					<stop  offset="0" style="stop-color:#F9B776"/>
					<stop  offset="1" style="stop-color:#F47960"/>
				</linearGradient>
				<path style="fill:url(#SVGID_00000016060975168638697790000016549229907849517199_);" d="M1573.652,1871.645
					c-0.288-7.602-4.018-14.662-10.136-19.186l-59.707-44.149c0,0,1.217-8.814,17.822-10.7c16.606-1.886,17.472-19.71,17.472-19.71
					s-23.067,4.046-57.138,11.116c-19.483,4.044-33.088,16.591-41.174,26.596l11.296,27.036
					c37.886,23.03,78.856,36.202,122.068,42.209L1573.652,1871.645z"/>
			</g>
			
				<linearGradient id="SVGID_00000143619195456553752270000005728021698319580816_" gradientUnits="userSpaceOnUse" x1="921.8572" y1="2534.7937" x2="703.342" y2="2844.0771">
				<stop  offset="0" style="stop-color:#53EAC9"/>
				<stop  offset="0.9964" style="stop-color:#45AED8"/>
			</linearGradient>
			<polygon style="fill:url(#SVGID_00000143619195456553752270000005728021698319580816_);" points="682.985,2684.665 
				979.399,2696.125 979.399,2587.774 729.093,2564.854 			"/>
			
				<linearGradient id="SVGID_00000074406290714660598390000001155953554628567964_" gradientUnits="userSpaceOnUse" x1="-2266.9839" y1="983.7211" x2="-2045.5399" y2="1539.209" gradientTransform="matrix(-1 0 0 1 -1165.4333 0)">
				<stop  offset="0" style="stop-color:#2B3582"/>
				<stop  offset="1" style="stop-color:#150E42"/>
			</linearGradient>
			<path style="fill:url(#SVGID_00000074406290714660598390000001155953554628567964_);" d="M987.257,1289.31
				c0,0-75.353,25.118-124.167,132.769c-13.346,29.433-85.817,34.657-93.297,95.035c-3.862,31.172-26.929,56.138-57.977,60.897
				c-77.331,11.853-196.504,52.007-215.572,186.271c-14.553,102.48,37.69,141.34,92.517,154.79
				c40.27,9.878,67.031,49.047,58.886,89.703c-7.813,38.995,3.837,84.073,71.393,119.722
				c151.389,79.882,302.574-189.247,302.574-189.247l30.985-469.917L987.257,1289.31z"/>
			
				<linearGradient id="SVGID_00000052095278459845910730000009759943565203185024_" gradientUnits="userSpaceOnUse" x1="-1711.6144" y1="3208.3472" x2="-1604.1591" y2="3208.3472" gradientTransform="matrix(-1 0 0 1 -1165.4333 0)">
				<stop  offset="0" style="stop-color:#2B3582"/>
				<stop  offset="1" style="stop-color:#150E42"/>
			</linearGradient>
			<path style="fill:url(#SVGID_00000052095278459845910730000009759943565203185024_);" d="M546.053,3182.576l-6.112,50.245
				c-1.16,9.532-8.664,17.068-18.205,18.159c-16.107,1.839-41.955,3.725-67.244,1.052c-11.101-1.173-18.308-12.414-14.926-23.052
				c6.165-19.397,17.443-48.513,33.705-65.649h55.738C539.314,3163.332,547.297,3172.346,546.053,3182.576z"/>
			
				<linearGradient id="SVGID_00000004530227500206109470000000702606997431700122_" gradientUnits="userSpaceOnUse" x1="-2165.6721" y1="3632.095" x2="-2011.035" y2="1824.7734" gradientTransform="matrix(-1 0 0 1 -1165.4333 0)">
				<stop  offset="0" style="stop-color:#F9B776"/>
				<stop  offset="1" style="stop-color:#F47960"/>
			</linearGradient>
			<path style="fill:url(#SVGID_00000004530227500206109470000000702606997431700122_);" d="M982.613,2593.98l9.407,55.34
				c0,0-31.504,319.116-37.108,446.762c-0.879,20.012,4.298,39.789,14.802,56.846l54.782,88.959l-139.226-82.155l-2.771-16.99
				l22.791-31.337l-29.853-357.488c-1.754-21.001,2.58-42.062,12.482-60.665l28.798-54.101L982.613,2593.98z"/>
			
				<linearGradient id="SVGID_00000040551468830750535690000000028956036872022686_" gradientUnits="userSpaceOnUse" x1="-2210.8462" y1="3188.7283" x2="-2036.974" y2="3188.7283" gradientTransform="matrix(-1 0 0 1 -1165.4333 0)">
				<stop  offset="0" style="stop-color:#2B3582"/>
				<stop  offset="1" style="stop-color:#150E42"/>
			</linearGradient>
			<path style="fill:url(#SVGID_00000040551468830750535690000000028956036872022686_);" d="M1033.665,3254.775h-44.43
				c-8.316,0-16.159-3.818-21.232-10.408c-13.851-17.998-42.547-53.11-56.27-54.027c-18.471-1.234-16.109,64.436-16.109,64.436
				H885.27l-13.115-81.602c-3.3-20.531,6.91-40.871,25.347-50.492l0,0c0,0,4.222,31.228,27.119,45.042
				c22.895,13.813,93.171,63.279,93.171,63.279s8.607-1.228,18.057,0.481C1049.868,3234.016,1047.91,3254.775,1033.665,3254.775z"/>
			
				<linearGradient id="SVGID_00000113312895848340548910000003778251139150543753_" gradientUnits="userSpaceOnUse" x1="-1854.6104" y1="3658.9863" x2="-1699.9326" y2="1851.1896" gradientTransform="matrix(-1 0 0 1 -1165.4333 0)">
				<stop  offset="0" style="stop-color:#F9B776"/>
				<stop  offset="1" style="stop-color:#F47960"/>
			</linearGradient>
			<path style="fill:url(#SVGID_00000113312895848340548910000003778251139150543753_);" d="M791.92,2620.264
				c0,0-184.564,350.099-213.903,430.032c-29.337,79.933-39.615,146.616-40.009,152.931c-0.615,9.866-12.888,19.329-46.715,19.329
				c-17.459,0-26.009-6.997-30.195-13.771c-3.571-5.779-3.757-13.01-0.747-19.102c10.676-21.606,44.557-90.654,57.105-121.97
				c14.981-37.39,47.207-206.841,64.881-265.757c17.673-58.916,37.651-122.824,114.614-181.692
				C696.951,2620.264,749.784,2568.517,791.92,2620.264z"/>
			
				<linearGradient id="SVGID_00000099630779601244353910000016994025030863258554_" gradientUnits="userSpaceOnUse" x1="1664.4135" y1="154.712" x2="1364.9027" y2="889.8766">
				<stop  offset="0" style="stop-color:#5AB6FF"/>
				<stop  offset="1" style="stop-color:#2F68E3"/>
			</linearGradient>
			<path style="fill:url(#SVGID_00000099630779601244353910000016994025030863258554_);" d="M908.512,2046.609
				c47.609-201.738-72.998-315.839-72.998-315.839c48.725-46.771,123.095-77.223,170.295-93.079
				c27.991-9.403,58.853-2.98,80.665,16.923c37.911,34.592,90.646,92.921,80.408,142.307
				c-9.199,44.375-92.999,265.797-92.999,265.797S996.393,2099.391,908.512,2046.609z"/>
			
				<linearGradient id="SVGID_00000165927277553421748520000010333827231105476250_" gradientUnits="userSpaceOnUse" x1="1148.4296" y1="1976.1196" x2="703.5141" y2="2720.2026">
				<stop  offset="0" style="stop-color:#2B3582"/>
				<stop  offset="1" style="stop-color:#150E42"/>
			</linearGradient>
			<path style="fill:url(#SVGID_00000165927277553421748520000010333827231105476250_);" d="M802.956,2146.484
				c19.375-58.369,105.556-99.875,105.556-99.875c87.881,52.782,165.371,16.109,165.371,16.109s17.378,66.424,5.383,128.154
				c-11.994,61.729-87.245,458.448-87.245,458.448c-118.57,24.025-300.929-24.171-300.929-24.171
				C766.617,2491.06,783.58,2204.853,802.956,2146.484z"/>
			
				<linearGradient id="SVGID_00000016774029899498331940000002150205445845305267_" gradientUnits="userSpaceOnUse" x1="-2182.6306" y1="1850.6168" x2="-2153.5825" y2="1638.1079" gradientTransform="matrix(-1 0 0 1 -1165.4333 0)">
				<stop  offset="0" style="stop-color:#F9B776"/>
				<stop  offset="1" style="stop-color:#F47960"/>
			</linearGradient>
			<path style="fill:url(#SVGID_00000016774029899498331940000002150205445845305267_);" d="M963.775,1491.167l-38.708,173.864
				c-3.706,15.315,10.256,12.808,25.739,9.889c25.356-4.78,58.036-14.627,68.961-34.356c1.111-2.008,1.667-4.279,1.981-6.552
				l16.629-120.564c1.321-9.564-3.851-18.847-12.678-22.761l-32.089-14.229C981.253,1470.98,966.953,1478.029,963.775,1491.167z"/>
			<g>
				
					<linearGradient id="SVGID_00000174587456020843085260000008604436233549218720_" gradientUnits="userSpaceOnUse" x1="-1925.17" y1="1445.1986" x2="-1671.7141" y2="994.1322" gradientTransform="matrix(-0.8982 -0.4395 -0.4395 0.8982 -66.1878 -530.4197)">
					<stop  offset="0" style="stop-color:#F9B776"/>
					<stop  offset="1" style="stop-color:#F47960"/>
				</linearGradient>
				<path style="fill:url(#SVGID_00000174587456020843085260000008604436233549218720_);" d="M1065.106,1352.563
					c0,0,32.668,37.536,31.553,110.738c-1.117,73.202-35.468,90.445-63.577,81.366c-28.109-9.079-67.104-28.871-89.84-87.636
					C920.506,1398.266,1021.662,1305.761,1065.106,1352.563z"/>
				
					<linearGradient id="SVGID_00000101088661454805230850000003240050501340245420_" gradientUnits="userSpaceOnUse" x1="-1870.6636" y1="1052.3907" x2="-1743.9358" y2="1370.2847" gradientTransform="matrix(-0.8982 -0.4395 -0.4395 0.8982 -66.1878 -530.4197)">
					<stop  offset="0" style="stop-color:#2B3582"/>
					<stop  offset="1" style="stop-color:#150E42"/>
				</linearGradient>
				<path style="fill:url(#SVGID_00000101088661454805230850000003240050501340245420_);" d="M986.713,1438.929
					c0,0,11.531-102.256,89.215-65.52l11.95,21.581c0,0,51.936-34.41,16.729-80.193c-35.207-45.783-98.918-53.369-149.339-0.427
					c-50.42,52.943-74.309,93.209-56.061,139.271c18.248,46.062,48.432,18.727,48.432,18.727s-4.209-36.792,10.422-48.214
					c14.632-11.421,22.605,14.905,22.605,14.905L986.713,1438.929z"/>
				
					<linearGradient id="SVGID_00000038374406499541297030000014756341013159072948_" gradientUnits="userSpaceOnUse" x1="-1871.2191" y1="1475.5156" x2="-1617.7623" y2="1024.4476" gradientTransform="matrix(-0.8982 -0.4395 -0.4395 0.8982 -66.1878 -530.4197)">
					<stop  offset="0" style="stop-color:#F9B776"/>
					<stop  offset="1" style="stop-color:#F47960"/>
				</linearGradient>
				<path style="fill:url(#SVGID_00000038374406499541297030000014756341013159072948_);" d="M973.312,1444.39
					c0,0,6.235-52.529-23.458-44.925c-29.692,7.607-3.239,49.757,7.898,64.665L973.312,1444.39z"/>
			</g>
			<path style="opacity:0.44;fill:#FFFFFF;" d="M1023.325,1294.903c-18.157,5.949-34.369,16.823-49.102,28.839
				c-14.776,12.096-27.586,26.484-38.401,42.133c-10.828,15.663-19.563,32.761-25.649,50.783c-3.042,9.015-5.454,18.19-7.239,27.568
				c-1.823,9.381-3.353,18.975-6.263,28.387c-2.837,9.366-7.453,18.662-14.528,25.852c-6.917,7.303-15.424,12.593-23.95,17.211
				c-8.56,4.607-17.304,8.602-25.527,13.266c-8.26,4.578-15.791,10.171-22.498,16.727c-13.447,13.088-23.128,29.761-28.014,47.9
				c-2.595,9.108-4.57,18.609-7.998,27.934c-3.337,9.266-8.685,18.521-16.696,25.007c-7.87,6.605-17.345,10.566-26.776,13.288
				c-9.485,2.693-19.082,4.285-28.54,5.905c-18.875,2.976-37.261,7.896-54.789,15.25c-17.452,7.39-34.021,17.067-48.482,29.287
				c-14.458,12.169-26.83,26.98-35.222,43.869c-8.437,16.821-12.421,35.956-9.929,54.604c2.576,18.505,10.778,36.656,24.686,49.268
				c6.891,6.299,15.07,11.255,24.053,13.84c9.006,2.54,18.628,2.86,27.901,1.294c18.499-2.907,36.233-14.751,43.195-32.61
				l1.401,0.521c-6.817,18.613-24.972,31.301-44.121,34.701c-9.611,1.822-19.665,1.704-29.23-0.786
				c-9.577-2.547-18.36-7.626-25.755-14.127c-14.891-13.16-23.517-32.179-26.372-51.525c-2.759-19.552,1.315-39.72,9.968-57.241
				c8.615-17.639,21.31-33.022,36.133-45.678c14.833-12.709,31.768-22.749,49.631-30.461c17.877-7.661,36.854-12.86,55.918-15.998
				c9.465-1.685,18.854-3.324,27.854-5.95c8.954-2.648,17.56-6.392,24.43-12.255c6.929-5.788,11.731-13.635,14.944-22.367
				c3.286-8.711,5.322-18.072,8.047-27.423c5.242-18.943,15.647-36.615,29.883-50.239c7.079-6.835,15.165-12.732,23.751-17.406
				c8.536-4.756,17.328-8.693,25.722-13.138c8.358-4.445,16.421-9.429,22.808-16.088c6.516-6.533,10.783-14.909,13.58-23.855
				c2.844-8.95,4.434-18.383,6.338-27.841c1.875-9.491,4.424-18.927,7.594-28.095c6.355-18.366,15.378-35.747,26.543-51.613
				c11.348-15.713,24.668-30.046,39.896-41.993c15.188-11.863,31.753-22.494,50.364-28.175L1023.325,1294.903z"/>
			<path style="opacity:0.44;fill:#FFFFFF;" d="M921.138,1426.609c-0.609,12.374-1.345,24.812-3.631,37.131
				c-2.237,12.275-5.841,24.611-12.525,35.591c-3.334,5.451-7.391,10.56-12.094,14.939c-4.68,4.395-9.805,8.165-14.954,11.715
				c-10.391,6.976-20.473,13.704-29.677,21.713c-18.356,15.735-33.777,35.438-38.611,59.005c-5.521,23.323-4.018,49.126-14.386,73.5
				c-5.254,12.066-14.009,22.472-24.21,30.372c-10.225,7.973-21.785,13.796-33.693,18.189
				c-23.995,8.662-48.873,11.712-72.721,17.146c-23.632,5.362-47.3,14.385-64.031,31.891c-8.094,8.626-15.251,19.316-15.39,31.229
				c-0.109,11.967,5.442,23.457,10.89,34.437l-1.317,0.708c-6.105-10.641-12.543-21.979-12.997-35.13
				c-0.193-6.509,1.526-13.039,4.363-18.796c2.818-5.792,6.521-11.043,10.718-15.87c17.328-19.206,42.003-29.183,66.074-35.359
				c24.206-6.393,48.95-9.294,71.578-17.865c11.264-4.265,22.031-9.853,31.295-17.217c9.278-7.337,16.823-16.56,21.426-27.278
				c9.615-21.61,8.607-47.054,14.515-71.826c2.895-12.459,8.26-24.617,15.727-35.023c7.338-10.539,16.43-19.614,26.239-27.536
				c9.721-8.019,20.486-14.786,30.829-21.335c10.354-6.565,19.724-14.141,26.168-24.306c6.694-9.96,10.731-21.656,13.44-33.577
				c2.705-11.963,4.101-24.269,5.484-36.567L921.138,1426.609z"/>
			
				<linearGradient id="SVGID_00000104676248603563548240000003224488499020358543_" gradientUnits="userSpaceOnUse" x1="1151.324" y1="1742.0634" x2="239.1959" y2="3033.0769">
				<stop  offset="0" style="stop-color:#9CFFFB"/>
				<stop  offset="1" style="stop-color:#9BFFFA"/>
			</linearGradient>
			<path style="fill:url(#SVGID_00000104676248603563548240000003224488499020358543_);" d="M1003.89,1798.668l-72.788-160.745
				c-31.039,7.958-96.398,94.63-96.398,94.63s63.06,260.684,0.81,330.138c-55.256,61.652-193.763,512.954-224.188,613.58
				c-1.478,4.887-0.702,10.18,2.125,14.431c2.828,4.253,7.407,7.018,12.486,7.541l151.476,15.593
				c8.357,0.861,16.101-4.479,18.268-12.595l215.929-808.799C1019.943,1861.23,1017.215,1828.097,1003.89,1798.668z"/>
			
				<linearGradient id="SVGID_00000109717778980703793400000000406662399622317491_" gradientUnits="userSpaceOnUse" x1="934.6238" y1="2176.0725" x2="1170.5736" y2="2176.0725">
				<stop  offset="0" style="stop-color:#53EAC9"/>
				<stop  offset="0.9964" style="stop-color:#45AED8"/>
			</linearGradient>
			<path style="fill:url(#SVGID_00000109717778980703793400000000406662399622317491_);" d="M1168.176,1820.987
				c0,0,25.596-88.254-90.458-173.314c0,0-50.06-38.11-55.97-13.66l41.32,197.897l-128.262,874.833
				c-0.827,5.643,1.214,11.325,5.442,15.153c4.228,3.828,10.086,5.295,15.62,3.913l31.572-7.893
				c6.34-1.585,11.225-6.65,12.583-13.043c17.954-84.463,137.228-653.125,102.239-690.597
				C1102.259,2014.275,1171.028,1838.506,1168.176,1820.987z"/>
			
				<linearGradient id="SVGID_00000165939998883076803030000014359659781473815722_" gradientUnits="userSpaceOnUse" x1="816.9434" y1="1921.3408" x2="1358.0245" y2="1921.3408">
				<stop  offset="0" style="stop-color:#9CFFFB"/>
				<stop  offset="1" style="stop-color:#9BFFFA"/>
			</linearGradient>
			<path style="fill:url(#SVGID_00000165939998883076803030000014359659781473815722_);" d="M834.704,1732.553
				c0,0-75.858,305.961,85.973,364.119c161.831,58.158,369.176-91.03,369.176-91.03s35.401-17.7,55.63-12.642
				c20.229,5.057,17.7-70.801-20.229-91.031c-37.929-20.229-80.915,65.744-80.915,65.744s-355.614,177.167-323.202-127.613
				C921.136,1840.101,968.72,1737.61,834.704,1732.553z"/>
			<g>
				
					<linearGradient id="SVGID_00000174600263187434152440000013772220471870717602_" gradientUnits="userSpaceOnUse" x1="1329.3529" y1="1806.6638" x2="1649.2854" y2="955.7815">
					<stop  offset="0" style="stop-color:#2B3582"/>
					<stop  offset="1" style="stop-color:#150E42"/>
				</linearGradient>
				<path style="fill:url(#SVGID_00000174600263187434152440000013772220471870717602_);" d="M1062.591,2177.665l87.983-307.259
					c0.998-3.488,3.974-6.033,7.578-6.452c15.941-1.859,62.131-7.082,115.464-11.592c64.241-5.434,138.843-9.837,183.424-6.091
					c6.337,0.532,10.167,7.236,7.349,12.938c-25.351,51.288-129.629,259.915-181.848,328.259c-1.73,2.264-4.406,3.588-7.254,3.562
					l-204.138-1.9C1065.21,2189.074,1060.956,2183.376,1062.591,2177.665z"/>
				
					<linearGradient id="SVGID_00000009584112597681961140000006700895979043017141_" gradientUnits="userSpaceOnUse" x1="1346.6556" y1="1687.4052" x2="1302.5941" y2="1880.8921">
					<stop  offset="0" style="stop-color:#53D8FF"/>
					<stop  offset="1" style="stop-color:#3840F7"/>
				</linearGradient>
				<path style="fill:url(#SVGID_00000009584112597681961140000006700895979043017141_);" d="M1282.744,1825.724l63.789-10.629
					c3.398-0.566,6.18,2.68,5.101,5.95l-6.315,19.135c-0.549,1.666-2.002,2.871-3.741,3.103l-61.384,8.2
					c-3.175,0.423-5.794-2.462-5.064-5.582l3.909-16.706C1279.459,1827.398,1280.92,1826.027,1282.744,1825.724z"/>
				
					<linearGradient id="SVGID_00000173124600948271214250000008081068883867319476_" gradientUnits="userSpaceOnUse" x1="1504.7539" y1="1323.4905" x2="1243.8159" y2="2035.9629">
					<stop  offset="0" style="stop-color:#53D8FF"/>
					<stop  offset="1" style="stop-color:#3840F7"/>
				</linearGradient>
				<path style="fill:url(#SVGID_00000173124600948271214250000008081068883867319476_);" d="M1234.979,1879.728l5.255-27.373
					c0.527-2.746,2.794-4.82,5.575-5.102l128.84-13.075c4.337-0.44,7.81,3.535,6.792,7.773l-8.192,34.109
					c-0.655,2.729-3.031,4.699-5.834,4.841l-125.903,6.338C1237.413,1887.445,1234.206,1883.756,1234.979,1879.728z"/>
				
					<linearGradient id="SVGID_00000088844650887471241980000000877582340174542224_" gradientUnits="userSpaceOnUse" x1="1075.3605" y1="2051.3374" x2="1192.5782" y2="2051.3374">
					<stop  offset="0" style="stop-color:#F9B776"/>
					<stop  offset="1" style="stop-color:#F47960"/>
				</linearGradient>
				<path style="fill:url(#SVGID_00000088844650887471241980000000877582340174542224_);" d="M1083.848,2103.431
					c0,0-12.257-50.397-7.313-68.277c4.944-17.88,14.523-40.869,46.451-35.76c31.928,5.108,69.592,18.558,69.592,18.558
					s-1.902,23.29-26.169,15.776l15.047,11.643c0,0-2.151,18.648-22.647,8.685l13.996,15.441c0,0-8.803,15.316-23.882,5.493
					C1133.842,2065.167,1126.614,2109.5,1083.848,2103.431z"/>
			</g>
			<g>
				<g>
					
						<linearGradient id="SVGID_00000144319098794805165500000010177124528332424873_" gradientUnits="userSpaceOnUse" x1="909.7291" y1="2065.0591" x2="895.0973" y2="2085.7686">
						<stop  offset="0" style="stop-color:#53EAC9"/>
						<stop  offset="0.9964" style="stop-color:#45AED8"/>
					</linearGradient>
					<path style="fill:url(#SVGID_00000144319098794805165500000010177124528332424873_);" d="M954.646,2099.497
						c-0.065,0-0.13,0-0.195,0c-73.675,0-101.855-55.766-102.13-56.349c-0.987-2.075-0.102-1.935,1.974-2.924
						c2.073-0.976,4.56,1.206,5.553,3.281c0.256,0.537,26.455,54.359,94.985,57.501c2.299,0.106,4.078-2.865,3.972-0.565
						C958.704,2102.675,956.86,2099.497,954.646,2099.497z"/>
				</g>
				<g>
					
						<linearGradient id="SVGID_00000083072849951571387970000005318476555297993654_" gradientUnits="userSpaceOnUse" x1="984.4123" y1="1871.0168" x2="920.3539" y2="1961.6843">
						<stop  offset="0" style="stop-color:#53EAC9"/>
						<stop  offset="0.9964" style="stop-color:#45AED8"/>
					</linearGradient>
					<path style="fill:url(#SVGID_00000083072849951571387970000005318476555297993654_);" d="M981.518,2002.839
						c-0.649,0-1.306-0.151-1.923-0.472c-81.934-42.723-60.86-164.662-59.921-169.835c0.411-2.259,2.59-3.776,4.843-3.354
						c2.263,0.407,3.766,2.576,3.358,4.839c-0.218,1.208-20.899,121.084,55.575,160.959c2.041,1.066,2.833,3.581,1.769,5.62
						C984.475,2002.025,983.022,2002.839,981.518,2002.839z"/>
				</g>
			</g>
			
				<linearGradient id="SVGID_00000024716399094881507510000006925941679579730090_" gradientUnits="userSpaceOnUse" x1="1025.7031" y1="1704.761" x2="882.8396" y2="1906.968">
				<stop  offset="0" style="stop-color:#53EAC9"/>
				<stop  offset="0.9964" style="stop-color:#45AED8"/>
			</linearGradient>
			<path style="fill:url(#SVGID_00000024716399094881507510000006925941679579730090_);" d="M1016.344,1823.07
				c-14.05-44.799-85.242-185.147-85.242-185.147l-28.79,18.527l52.701,165.138c2.262,7.089,8.847,11.9,16.287,11.9
				c3.955,0,7.231,3.07,7.487,7.016l9.126,140.7C987.913,1981.205,1030.394,1867.869,1016.344,1823.07z"/>
			
				<linearGradient id="SVGID_00000059301629356338781280000006729655811511798975_" gradientUnits="userSpaceOnUse" x1="1120.5793" y1="1672.2765" x2="943.6225" y2="1922.7389">
				<stop  offset="0" style="stop-color:#9CFFFB"/>
				<stop  offset="1" style="stop-color:#9BFFFA"/>
			</linearGradient>
			<path style="fill:url(#SVGID_00000059301629356338781280000006729655811511798975_);" d="M1095.689,1781.472
				c2.257-5.431,2.517-11.485,0.733-17.089l-43.823-137.65l-26.885-21.482l-2.962,21.482l24.341,128.617l-8.605,234.412
				l45.526-125.891c2.223-6.147,1.937-12.923-0.798-18.86l-2.768-6.013c-2.904-6.304-3.041-13.538-0.376-19.947L1095.689,1781.472z"
				/>
		</g>
		<g>
			
				<linearGradient id="SVGID_00000168834481388912296750000002129194628543421588_" gradientUnits="userSpaceOnUse" x1="1934.2142" y1="-1484.171" x2="1497.7665" y2="-543.3832">
				<stop  offset="0" style="stop-color:#FDF53F"/>
				<stop  offset="1" style="stop-color:#D93C65"/>
			</linearGradient>
			<path style="fill:url(#SVGID_00000168834481388912296750000002129194628543421588_);" d="M1066.961,500.885
				c-57.799,0-109.274,30.311-142.657,77.533c-33.382-47.222-84.858-77.533-142.657-77.533
				c-100.636,0-182.217,91.779-182.217,204.994c0,101.018,174.658,286.139,288.082,358.916
				c22.206,14.248,50.957,12.992,71.898-3.057c97.584-74.782,289.767-256.226,289.767-355.86
				C1249.178,592.664,1167.597,500.885,1066.961,500.885z"/>
			<path style="fill:#FFFFFF;" d="M936.43,881.565c-0.254,0-0.507-0.005-0.76-0.014c-7.329-0.287-13.866-4.682-16.902-11.356
				l-84.825-186.616l-82.016,89.831c-3.675,4.025-8.875,6.317-14.326,6.317H529.076c-10.712,0-19.398-8.685-19.398-19.398
				c0-10.712,8.685-19.398,19.398-19.398h199.97l96.068-105.219c4.394-4.813,10.923-7.096,17.352-6.081
				c6.439,1.018,11.936,5.2,14.634,11.134l81.017,178.242l83.172-150.5c3.594-6.507,10.615-10.385,18.008-9.987
				c7.421,0.393,13.964,4.994,16.847,11.842l33.797,80.269h181.098c10.712,0,19.398,8.685,19.398,19.398
				s-8.685,19.398-19.398,19.398h-193.977c-7.805,0-14.849-4.677-17.877-11.87l-23.279-55.29l-82.499,149.283
				C949.981,877.745,943.469,881.565,936.43,881.565z"/>
		</g>
	</g>
</g>
</svg>
