<?xml version="1.0" encoding="utf-8"?>
<!-- Generator: Adobe Illustrator 27.5.0, SVG Export Plug-In . SVG Version: 6.00 Build 0)  -->
<svg version="1.1" xmlns="http://www.w3.org/2000/svg" xmlns:xlink="http://www.w3.org/1999/xlink" x="0px" y="0px"
	 viewBox="0 0 500 500" style="enable-background:new 0 0 500 500;" xml:space="preserve">
<g id="BACKGROUND">
	<rect style="fill:#FFFFFF;" width="500" height="500"/>
</g>
<g id="OBJECTS">
	<g>
		<g>
			<g>
				<g>
					
						<rect x="344.244" y="264.508" transform="matrix(-1 -1.224647e-16 1.224647e-16 -1 759.1181 621.464)" style="fill:#DBDBDB;" width="70.63" height="92.448"/>
					
						<rect x="353.427" y="264.508" transform="matrix(-1 -1.224647e-16 1.224647e-16 -1 777.4842 621.464)" style="fill:#DBDBDB;" width="70.63" height="92.448"/>
					<rect x="398.654" y="274.88" style="fill:#FFFFFF;" width="21.258" height="20.247"/>
					<rect x="398.654" y="300.373" style="fill:#FFFFFF;" width="21.258" height="20.247"/>
					<polygon style="fill:#FFFFFF;" points="398.654,325.866 398.654,342.584 355.133,342.584 355.133,346.113 419.912,346.113 
						419.912,325.866 					"/>
					<path style="fill:#DBDBDB;" d="M403.902,356.753c0,3.03,2.456,5.486,5.486,5.486c3.03,0,5.486-2.456,5.486-5.486
						c0-3.03-2.456-5.486-5.486-5.486C406.358,351.267,403.902,353.723,403.902,356.753z"/>
					<path style="fill:#DBDBDB;" d="M355.251,356.753c0,3.03,2.456,5.486,5.486,5.486c3.03,0,5.486-2.456,5.486-5.486
						c0-3.03-2.456-5.486-5.486-5.486C357.707,351.267,355.251,353.723,355.251,356.753z"/>
				</g>
				<g>
					<path style="fill:#DBDBDB;" d="M140.337,301.241H89.398c-1.7,0-3.079,1.378-3.079,3.079c0,1.7,1.378,3.079,3.079,3.079h0.881
						c1.351,14.658,2.701,29.317,4.052,43.975c0.244,2.648,2.014,4.912,4.535,5.756c3.931,1.316,9.189,2.538,15.433,2.608
						c6.716,0.076,12.353-1.206,16.488-2.582c2.551-0.849,4.37-3.104,4.616-5.781l4.052-43.976h0.881c1.7,0,3.079-1.378,3.079-3.079
						C143.416,302.62,142.037,301.241,140.337,301.241z"/>
					<path style="fill:#DBDBDB;" d="M137.567,252.698c17.37-6.27,28.991,8.655,28.991,8.655s-1.907-36.197-24.507-30.517
						c-15.008,3.771-24.719,15.117-28.079,31.387c-0.462-5.997-1.071-12.201-1.863-18.444l0.571-2.574
						c6.442-9.831,27.887-26.152,25.541-48.986c0,0-23.639,15.382-27.012,44.995c-0.929-6.278-2.061-12.531-3.431-18.594
						c0.035-46.318-37.071-70.431-37.071-70.431c-2.926,28.489,21.533,49.472,32.165,62.985c2.525,9.32,4.398,19.38,5.78,29.449
						c-4.146-15.471-14.094-25.123-28.06-26.091c-18.376-1.274-14.822,27.156-14.822,27.156s6.965-13.231,21.353-10.769
						c12.719,2.176,21.44,20.814,23.294,25.113c1.2,12.841,1.714,25.043,1.902,34.999c-3.283-8.724-12.349-27.206-32.102-34.485
						c-26.271-9.682-23.1,33.214-23.1,33.214c2.672-2.122,12.518-9.414,26.723-8.926c14.905,0.512,24.76,9.248,28.528,13.224
						c0.165,12.532-0.174,20.825-0.187,21.115c-0.035,0.796,0.582,1.471,1.379,1.506c0.022,0.001,0.043,0.002,0.065,0.002
						c0.768,0,1.407-0.605,1.441-1.38c0.045-1.013,0.31-7.461,0.287-17.164c2.345-4.131,7.542-11.2,17.056-14.422
						c10.194-3.453,18.923-0.314,21.324,0.642c0,0-7.059-31.794-23.995-19.043c-8.827,6.646-12.752,16.071-14.491,23.578
						c-0.024-1.176-0.053-2.376-0.087-3.606C117.765,276.141,124.57,257.39,137.567,252.698z"/>
				</g>
				<g>
					<path style="fill:#DBDBDB;" d="M366.231,244.851h25.586c0.854,0,1.546,0.692,1.546,1.546c0,0.854-0.692,1.546-1.546,1.546
						h-0.443c-0.678,7.363-1.357,14.726-2.035,22.088c-0.122,1.33-1.012,2.467-2.278,2.891c-1.975,0.661-4.615,1.275-7.752,1.31
						c-3.373,0.038-6.205-0.606-8.282-1.297c-1.281-0.426-2.195-1.559-2.319-2.904l-2.035-22.089h-0.443
						c-0.854,0-1.546-0.692-1.546-1.546C364.685,245.544,365.377,244.851,366.231,244.851z"/>
					<path style="fill:#DBDBDB;" d="M385.555,234.182c-2.854-2.296-5.996-0.245-5.996-0.245s2.69-6.667,6.564-4.145
						c2.572,1.675,3.663,4.429,3.244,7.697c0.473-1.095,0.987-2.22,1.538-3.34l0.059-0.52c-0.575-2.259-3.546-6.703-1.634-10.835
						c0,0,3.443,4.409,2.167,10.182c0.579-1.118,1.194-2.218,1.842-3.267c2.979-8.691,11.493-10.823,11.493-10.823
						c-1.287,5.533-7.228,7.893-10.093,9.743c-1.074,1.586-2.074,3.352-2.982,5.152c1.775-2.635,4.263-3.805,6.945-3.086
						c3.529,0.945,1.03,6.049,1.03,6.049s-0.454-2.931-3.312-3.396c-2.526-0.411-5.363,2.523-5.988,3.21
						c-1.053,2.332-1.935,4.587-2.612,6.443c1.178-1.425,4.07-4.308,8.245-4.4c5.552-0.123,2.193,7.719,2.193,7.719
						c-0.364-0.57-1.741-2.573-4.438-3.397c-2.829-0.865-5.241,0.139-6.204,0.642c-0.839,2.34-1.309,3.918-1.326,3.973
						c-0.045,0.152-0.204,0.238-0.356,0.194c-0.004-0.001-0.008-0.002-0.012-0.004c-0.144-0.049-0.225-0.204-0.181-0.352
						c0.057-0.193,0.423-1.419,1.052-3.238c-0.174-0.926-0.693-2.587-2.27-3.805c-1.69-1.305-3.53-1.278-4.042-1.254
						c0,0,3.373-5.509,5.728-2.026c1.228,1.816,1.356,3.837,1.199,5.357c0.08-0.219,0.163-0.442,0.249-0.671
						C387.759,239.855,387.691,235.899,385.555,234.182z"/>
					<path style="fill:#DBDBDB;" d="M374.414,238.183c1.949-1.567,4.094-0.167,4.094-0.167s-1.837-4.552-4.482-2.83
						c-1.756,1.143-2.501,3.024-2.215,5.256c-0.323-0.748-0.674-1.516-1.05-2.28l-0.04-0.355c0.393-1.543,2.421-4.577,1.116-7.398
						c0,0-2.351,3.01-1.48,6.952c-0.395-0.763-0.815-1.514-1.258-2.231c-2.034-5.934-7.848-7.39-7.848-7.39
						c0.879,3.778,4.935,5.389,6.892,6.652c0.734,1.083,1.416,2.289,2.036,3.518c-1.212-1.799-2.911-2.598-4.742-2.107
						c-2.41,0.645-0.704,4.13-0.704,4.13s0.31-2.001,2.261-2.319c1.725-0.281,3.662,1.723,4.089,2.191
						c0.719,1.592,1.322,3.132,1.784,4.399c-0.805-0.973-2.779-2.941-5.629-3.005c-3.791-0.084-1.497,5.271-1.497,5.271
						c0.249-0.389,1.189-1.757,3.03-2.319c1.932-0.59,3.578,0.095,4.236,0.439c0.573,1.598,0.894,2.675,0.905,2.713
						c0.03,0.104,0.139,0.163,0.243,0.132c0.003-0.001,0.006-0.002,0.008-0.003c0.098-0.034,0.154-0.139,0.124-0.24
						c-0.039-0.132-0.289-0.969-0.719-2.211c0.119-0.632,0.473-1.766,1.55-2.598c1.154-0.891,2.41-0.873,2.759-0.856
						c0,0-2.303-3.762-3.911-1.383c-0.838,1.24-0.926,2.62-0.819,3.658c-0.055-0.15-0.111-0.302-0.17-0.458
						C372.909,242.057,372.956,239.355,374.414,238.183z"/>
					<path style="fill:#DBDBDB;" d="M380.959,230.22c4.319-2.479,8.104,0.941,8.104,0.941s-2.202-9.523-7.938-6.956
						c-3.809,1.704-5.857,5.172-5.987,9.65c-0.404-1.571-0.856-3.19-1.358-4.811l0.031-0.71c1.25-2.912,6.181-8.251,4.488-14.205
						c0,0-5.557,5.192-5.066,13.214c-0.541-1.624-1.134-3.231-1.782-4.777c-2.16-12.302-13.143-16.968-13.143-16.968
						c0.557,7.703,8.035,12.129,11.492,15.22c1.107,2.357,2.076,4.94,2.914,7.55c-1.825-3.914-4.919-6.012-8.674-5.615
						c-4.94,0.523-2.664,7.906-2.664,7.906s1.23-3.84,5.166-3.86c3.479-0.018,6.669,4.523,7.362,5.578
						c0.92,3.354,1.628,6.57,2.144,9.205c-1.281-2.163-4.554-6.646-10.14-7.654c-7.43-1.341-4.579,9.902-4.579,9.902
						c0.61-0.689,2.883-3.086,6.679-3.622c3.982-0.562,7.008,1.296,8.195,2.176c0.631,3.32,0.929,5.538,0.939,5.616
						c0.028,0.213,0.223,0.363,0.437,0.335c0.006-0.001,0.012-0.002,0.017-0.003c0.204-0.036,0.345-0.227,0.318-0.434
						c-0.035-0.271-0.267-1.996-0.728-4.572c0.429-1.207,1.478-3.328,3.854-4.629c2.545-1.394,5.01-0.97,5.693-0.828
						c0,0-3.364-8.113-7.264-3.934c-2.033,2.178-2.634,4.865-2.744,6.94c-0.061-0.311-0.125-0.629-0.192-0.954
						C376.799,237.373,377.727,232.075,380.959,230.22z"/>
				</g>
			</g>
			<path style="fill:#DBDBDB;" d="M440.533,395.693c-18.576,46.996-112.87,51.742-188.476,55.547c0,0-126.787,6.381-184.455-38.215
				c-2.887-2.233-10.739-8.305-12.783-18.222c0,0-2.046-9.929,4.212-21.209c13.858-24.976,120.949-17.52,190.544-15.308
				c117.226,3.725,184.577-5.634,192.993,20.634C444.584,385.212,442.396,390.98,440.533,395.693z"/>
			<g>
				<path style="fill:#DBDBDB;" d="M435.562,369.828c-0.416-0.289-0.85-0.569-1.298-0.842l3.001,6.797h-68.178l-3.66-16.192
					c-0.29-0.004-0.579-0.008-0.871-0.012l3.663,16.204h-68.217l-0.175-16.532c-0.282-0.003-0.566-0.005-0.849-0.008l0.175,16.539
					h-68.219l3.694-18.019c-0.286-0.011-0.572-0.021-0.859-0.032l-3.701,18.051h-68.184l8.451-20.096
					c-0.304-0.005-0.608-0.011-0.912-0.016l-8.458,20.112H92.851l11.67-18.346c-0.36,0.036-0.718,0.073-1.075,0.11l-11.6,18.236
					H57.912c-0.183,0.387-0.339,0.767-0.504,1.15h62.445l-13.143,24.036H57c0.198,0.392,0.403,0.775,0.616,1.15h17.478
					l-7.116,11.188c0.224,0.172,0.455,0.338,0.682,0.508l7.439-11.696h73.79l-11.912,28.325H99.021
					c0.971,0.391,1.951,0.772,2.934,1.15h69.153l-5.107,15.416c0.285,0.039,0.57,0.079,0.855,0.118l5.145-15.533h80.232
					l-2.283,19.733c0.325-0.012,0.606-0.022,0.857-0.032l2.28-19.701h80.253l1.346,13.481c0.281-0.035,0.562-0.069,0.842-0.105
					l-1.335-13.376H396.4c1.02-0.375,2.026-0.759,3.021-1.15h-17.977l-6.403-28.325h62.334c0.224-0.378,0.432-0.765,0.646-1.15
					h-32.363l-7.581-24.036h43.699c-0.184-0.392-0.384-0.775-0.598-1.15h-2.986L435.562,369.828z M182.146,400.968l7.962-24.036
					h68.45l-2.781,24.036H182.146z M299.43,402.117l0.299,28.325h-80.001l5.807-28.325H299.43z M256.63,400.968l2.781-24.036h68.47
					l2.4,24.036H256.63z M120.82,376.932h68.394l-7.962,24.036h-73.575L120.82,376.932z M150.809,402.117h73.86l-5.807,28.325
					h-79.965L150.809,402.117z M380.576,430.442h-79.998l-0.299-28.325h73.894L380.576,430.442z M404.769,400.968h-73.634
					l-2.4-24.036h68.453L404.769,400.968z"/>
			</g>
		</g>
		<g>
			<g>
				<path style="fill:#08051A;" d="M272.583,303.945c0,0,5.717,61.492,0,62.877s-4.447-67.241-4.447-67.241"/>
				<path style="fill:#08051A;" d="M170.931,304.677c0,0-5.717,61.492,0,62.877c5.717,1.385,4.447-67.241,4.447-67.241"/>
				<polygon style="fill:#08051A;" points="147.684,303.975 151.345,313.374 291.195,313.374 295.222,302.508 280.944,224.163 
					163.792,224.163 				"/>
				<path style="fill:#08051A;" d="M294.836,301.358c0,0,1.484,82.893-5.106,84.489c-6.59,1.596-1.647-78.247-1.647-78.247"/>
				<path style="fill:#08051A;" d="M147.684,299.581c0,0,3.936,84.975,10.649,85.928c6.713,0.953-2.371-77.637-2.371-77.637"/>
				<path style="fill:#FBA864;" d="M292.825,255.954H152.97c-1.111,0-2.011-0.9-2.011-2.011v-49.829c0-1.111,0.9-2.011,2.011-2.011
					h139.855c1.111,0,2.011,0.9,2.011,2.011v49.829C294.836,255.053,293.936,255.954,292.825,255.954z"/>
				<path style="fill:#FFD392;" d="M293.211,260.773H153.356c-1.111,0-2.011-0.9-2.011-2.011v-49.829c0-1.111,0.9-2.011,2.011-2.011
					h139.855c1.111,0,2.011,0.9,2.011,2.011v49.829C295.222,259.872,294.321,260.773,293.211,260.773z"/>
				<path style="fill:#FBA864;" d="M306.439,303.975H138.854c-1.256,0-2.274-1.018-2.274-2.274v-6.5h172.982l-0.866,6.788
					C308.55,303.124,307.584,303.975,306.439,303.975z"/>
				<path style="fill:#FFD392;" d="M309.561,295.2H136.579l9.1-26.205c0.782-2.253,3.691-3.841,7.036-3.841h140.71
					c3.345,0,6.254,1.588,7.036,3.841L309.561,295.2z"/>
			</g>
			<g>
				<g>
					<g>
						<g>
							<path style="fill:#08051A;" d="M189.221,141.53c-0.002,0.08-0.004,0.16-0.006,0.239c-0.057,3.024,0.701,6.898-1.108,9.584
								c-1.326,1.97-3.471,1.855-5.395,2.878c-5.298,2.815-7.016,11.304-4.839,16.494c2.034,4.85,6.897,7.925,11.822,9.769
								c10.444,3.91,22.426,3.523,32.596-1.053c3.8-1.71,7.742-4.495,8.786-8.773c1.107-4.539-1.943-8.307-2.96-12.527
								c-0.953-3.95,0.834-6.939,0.691-10.706c-0.104-2.74-2.062-3.882-4.194-5.171c-4.329-2.616-3.111-8.202-5.078-12.256
								c-2.007-4.136-6.281-7.033-10.813-7.608c-5.128-0.651-10.432,1.505-13.991,5.254
								C191.229,131.345,189.371,136.441,189.221,141.53z"/>
							<g>
								<g>
									<g>
										<g>
											<g>
												<path style="fill:#E87578;" d="M235.618,176.558l28.378,45.593c1.764,3.797,0.117,8.305-3.68,10.07
													c-2.994,1.391-6.43,0.66-8.614-1.574l0.004,0.006l-0.012-0.014c-0.132-0.135-0.26-0.274-0.382-0.42
													c-0.109-0.13-0.202-0.275-0.302-0.413l-33.735-40.045c-6.198-7.432-0.528-15.34,4.091-17.487
													C226.572,169.853,232.686,171.779,235.618,176.558z"/>
											</g>
										</g>
									</g>
									<g>
										<g>
											<g>
												<g>
													<g>
														<g>
															<g>
																<g>
																	<path style="fill:#E87578;" d="M231.192,257.156c-2.599-1.105-6.249,8.631-7.26,10.55
																		c-2.499,4.742-4.969,9.5-7.381,14.287c-3.717,7.379-7.587,14.836-10.373,22.632
																		c-3.794,10.615,13.758,12.456,16.006,7.06c3.142-7.544,9.607-12.794,12.077-20.855
																		c3.118-10.177,2.713-21.442-1.323-31.308c-0.355-0.867-0.778-1.774-1.57-2.273
																		C231.31,257.212,231.251,257.181,231.192,257.156z"/>
																	<path style="fill:#E87578;" d="M212.666,372.209c0.095,4.735-0.813,6.306,2.681,7.221
																		c3.494,0.915,5.832-1.044,5.832-1.044c1.688-2.388,0.903-5.69,1.226-9.407c0.323-3.717,3.649-34.346,2.89-43.656
																		c-0.759-9.311-2.837-18.038-5.605-21.695c-2.433-3.215-12.064-3.499-12.89,1.411"/>
																</g>
															</g>
														</g>
													</g>
													<path style="fill:#454658;" d="M209.792,352.436c0.38,2.874,0.738,5.597,1.057,8.106
														c4.406,0.677,8.767,0.58,13.027-0.202c1.045-10.843,2.586-28.377,2.039-35.068c-0.44-5.404-1.335-10.626-2.522-14.741
														c1.353-2.776,3.17-5.322,4.927-7.786c2.533-3.551,6.508-9.079,7.89-13.59c3.213-10.488,1.382-19.898-2.697-29.87
														c-0.091-0.222-0.914-1.135-1.816-2.564c-0.361-0.572-0.614-1.018-0.801-1.365c-0.409-0.762-0.658-1.119-0.683-1.134
														c-0.584-0.342-4.368,4.465-15.366,21.29c-4.112,6.604-8.766,16.53-9.255,28.904c-0.082,2.074-0.041,4.06,0.092,5.949
														C205.547,320.307,207.9,338.113,209.792,352.436z"/>
												</g>
												<g>
													<g>
														<g>
															<g>
																<g>
																	<path style="fill:#E87578;" d="M182.669,255.778c2.61-1.077,6.158,8.697,7.148,10.626
																		c2.449,4.768,4.868,9.552,7.229,14.365c3.639,7.417,7.429,14.915,10.133,22.74
																		c3.682,10.654-13.889,12.31-16.079,6.89c-3.062-7.577-9.471-12.895-11.856-20.982
																		c-3.011-10.21-2.486-21.47,1.654-31.293c0.364-0.863,0.797-1.765,1.594-2.256
																		C182.55,255.833,182.609,255.803,182.669,255.778z"/>
																	<path style="fill:#E87578;" d="M199.977,371.021c-0.145,4.734,0.746,6.314-2.757,7.192
																		c-3.503,0.878-5.821-1.105-5.821-1.105c-1.663-2.405-0.843-5.699-1.127-9.42
																		c-0.284-3.72-3.286-34.382-2.428-43.684c0.858-9.302,3.028-18.007,5.834-21.634
																		c2.467-3.19,12.1-3.371,12.874,1.547"/>
																	<g>
																		<path style="fill:#FFFFFF;" d="M200.108,375.764c0,0,1.446,2.471,0.144,4.486
																			c-1.302,2.014-2.965,4.828-3.346,9.535c-0.38,4.707-12.067,4.572-14.795,0.346
																			c-2.07-3.205,4.619-10.845,4.619-10.845"/>
																		<path style="fill:#454658;" d="M198.936,367.789c2.164,0.048,1.796,7.168,1.208,9.075
																			c-0.588,1.907-2.596,3.738-3.151,6.658c-0.555,2.92-0.801,6.648-8.41,5.811c-4.666-0.513-6.105-4.849-3.025-8.612
																			c3.081-3.763,4.565-5.435,5.412-10.278c0.847-4.842,9.26-0.572,7.216,2.543c-2.044,3.115,0.541,2.553,0.692-0.448
																			C199.029,369.537,198.936,367.789,198.936,367.789z"/>
																		<g>
																			
																				<path style="fill:none;stroke:#FFFFFF;stroke-width:0.7978;stroke-linecap:round;stroke-linejoin:round;stroke-miterlimit:10;" d="
																				M193.176,382.258c-1.473-0.756-3.181-1.045-4.82-0.815"/>
																			<g>
																				
																					<path style="fill:none;stroke:#FFFFFF;stroke-width:0.7978;stroke-linecap:round;stroke-linejoin:round;stroke-miterlimit:10;" d="
																					M194.118,378.549c-0.703-0.64-1.679-0.969-2.627-0.887c0.717,0.403,1.352,1.016,1.826,1.687
																					c-0.767-0.652-1.748-0.887-2.745-0.745c1.122,0.463,2.226,1.29,2.991,2.232
																					c-1.313-0.82-2.905-1.207-4.453-1.222c1.515,0.461,1.799,0.293,2.928,1.404"/>
																				
																					<path style="fill:none;stroke:#FFFFFF;stroke-width:0.7978;stroke-linecap:round;stroke-linejoin:round;stroke-miterlimit:10;" d="
																					M193.125,377.923c0,0,2.825,0.71,3.089-0.19C196.479,376.833,193.125,377.923,193.125,377.923z"/>
																				
																					<path style="fill:none;stroke:#FFFFFF;stroke-width:0.7978;stroke-linecap:round;stroke-linejoin:round;stroke-miterlimit:10;" d="
																					M193.125,377.923c0,0-1.154-2.66-2.234-2.752C189.811,375.079,191.481,377.667,193.125,377.923z"/>
																			</g>
																		</g>
																		<path style="fill:#FFFFFF;" d="M188.557,388.224c-2.23-0.6-3.955-1.651-4.011-3.01
																			c-0.055-1.359,4.399-0.578,5.82-0.306c1.421,0.272,4.533,2.404,4.462,2.608
																			C194.758,387.72,191.849,389.11,188.557,388.224z"/>
																	</g>
																</g>
															</g>
														</g>
													</g>
													<path style="fill:#454658;" d="M203.06,351.279c-0.41,2.87-0.797,5.589-1.143,8.095
														c-4.413,0.63-8.773,0.487-13.024-0.34c-0.93-10.854-2.285-28.403-1.668-35.087c0.497-5.4,1.447-10.612,2.678-14.714
														c-1.324-2.79-3.113-5.355-4.844-7.837c-2.496-3.578-5.078-7.277-6.412-11.801c-3.102-10.522-2.506-21.782,1.679-31.711
														c0.093-0.222,0.926-1.125,1.842-2.544c0.367-0.568,0.625-1.011,0.815-1.356c0.417-0.757,0.669-1.112,0.695-1.126
														c0.587-0.336,4.321,4.511,15.14,21.451c4.042,6.646,8.591,16.622,8.949,29c0.06,2.074-0.003,4.06-0.155,5.947
														C207.644,319.197,205.104,336.977,203.06,351.279z"/>
												</g>
												<g>
													<g>
														<path style="fill:#E87578;" d="M177.667,179.168l-3.59,53.583c0.23,4.18,3.804,7.384,7.985,7.154
															c3.297-0.181,5.984-2.443,6.861-5.442l-0.001,0.007l0.004-0.018c0.053-0.181,0.101-0.364,0.14-0.55
															c0.035-0.165,0.049-0.337,0.072-0.506l10.927-51.208c1.972-9.474-6.752-13.785-11.837-13.506
															C182.494,168.997,178.006,173.573,177.667,179.168z"/>
														<path style="fill:#BFC9E2;" d="M177.887,177.472c0.65-3.649,2.332-5.823,5.654-7.467
															c3.388-1.677,10.556-3.175,14.754-3.714c6.766-0.869,5.035,14.071,0.746,20.605
															c-6.81,8.699,0.008,19.415-6.802,28.114c-11.866,0-20.261-4.374-20.261-4.374L177.887,177.472z"/>
														<path style="fill:#BFC9E2;" d="M213.351,165.865c9.545-0.827,19.61,4.481,21.991,6.678
															c2.381,2.197,0.255,4.759,2.508,4.759c2.253,0,5.338,1.859,2.057,6.146c-3.282,4.288-7.504,20.213-10.518,22.41"/>
														<path style="fill:#BFC9E2;" d="M231.765,203.292c0.889-2.107,1.765-4.217,2.192-6.457
															c1.657-8.697-6.477-11.645-9.009-18.726c-0.818-2.289-0.802-4.849-1.889-7.023
															c-2.532-5.066-10.351-5.421-15.237-5.702c-6.039-0.348-13.82,0.722-16.6,6.881c-1.278,2.832-1.666,5.989-2.801,8.882
															c-1.96,4.991-6.135,9.224-6.513,14.573c-0.365,5.161,2.905,9.768,4.772,14.593c4.346,11.232-0.52,23.006-3.606,33.927
															c-0.96,3.396-4.618,12.176-1.406,15.179c2.732,2.553,49.326,2.553,52.057,0c3.318-3.101,0.671-8.859-0.369-12.245
															c-1.53-4.979-3.909-10.502-4.706-15.655c-1.298-8.39-1.12-17.171,1.853-25.124
															C230.893,205.352,231.33,204.322,231.765,203.292z"/>
														<g>
															<path style="fill:#454658;" d="M233.356,247.174c2.126,3.8,6.373,12.229,6.544,22.923
																c0.095,5.952-0.745,12.802-3.358,18.243c-3.613,7.522-14.546,13.181-21.995,13.005
																c-9.554-0.226-13.311,0.597-22.71-1.031c-1.21-0.21-6.386-5.481-7.3-5.643c-2.094-0.371-2.443-4.599-2.823-6.226
																c-1.119-4.707-4.297-6.612-4.333-13.156c-0.062-11.293,2.437-20.346,4.514-26.079
																C200.228,260.048,233.722,250.43,233.356,247.174z"/>
														</g>
													</g>
													
														<path style="fill:none;stroke:#08051A;stroke-width:0.778;stroke-linecap:round;stroke-linejoin:round;stroke-miterlimit:10;" d="
														M209.852,273.975c-0.867,10.216-3.856,20.225-4.26,30.442c-0.082,2.074-0.041,4.06,0.092,5.949
														c-0.137,9.941,3.272,35.854,5.165,50.176"/>
												</g>
												
													<path style="fill:none;stroke:#08051A;stroke-width:0.778;stroke-linecap:round;stroke-linejoin:round;stroke-miterlimit:10;" d="
													M210.199,253.966c0,0,1.897,17.259,0,17.259c-1.897,0-3.397,0-3.397,0l-0.063-17.019"/>
												
													<path style="fill:none;stroke:#08051A;stroke-width:0.778;stroke-linecap:round;stroke-linejoin:round;stroke-miterlimit:10;" d="
													M187.931,253.193c0,0,0.462,9.97-6.595,9.402"/>
												
													<path style="fill:none;stroke:#08051A;stroke-width:0.778;stroke-linecap:round;stroke-linejoin:round;stroke-miterlimit:10;" d="
													M229.388,252.023c1.088,4.588,4.241,7.828,7.573,6.462"/>
											</g>
										</g>
										<g>
											<g>
												<path style="fill:#E87578;" d="M199.794,169.308c0.036,1.253,3.238,4.661,7.063,4.55
													c3.825-0.11,6.825-3.696,6.789-4.949c-0.036-1.253-3.166-2.18-6.991-2.07
													C202.829,166.95,199.758,168.055,199.794,169.308z"/>
												
													<rect x="202.034" y="156.984" transform="matrix(-0.9996 0.0288 -0.0288 -0.9996 417.8832 323.3283)" style="fill:#E87578;" width="9.16" height="15.377"/>
												<path style="fill:#08051A;" d="M201.896,159.961l-0.124-4.309l9.156-0.264l0.192,6.663
													C207.942,162.047,204.885,161.235,201.896,159.961z"/>
												<path style="fill:#E87578;" d="M206.322,124.694c9.649-0.278,13.296,7.637,13.572,17.225
													c0.26,9.036-5.43,16.769-12.587,16.975c-7.543,0.217-13.283-7.187-13.543-16.223
													C193.488,133.083,196.673,124.972,206.322,124.694z"/>
												<path style="fill:#08051A;" d="M191.885,145.102c0.951,0.116,0.297-7.225,5.553-12.227
													c5.361-5.102,12.649-3.752,12.998-6.434c0.24-1.851-3.001-4.253-6.057-4.594c-5.996-0.67-10.344,6.695-11.11,8.066
													C189.388,136.859,190.89,144.981,191.885,145.102z"/>
												<path style="fill:#08051A;" d="M219.848,143.036c-0.503-0.078,0.371-3.769-1.268-8.734
													c-0.521-1.579-1.004-2.994-2.242-4.382c-1.565-1.755-2.914-1.869-5.904-3.479c-2.063-1.11-6.381-3.748-6.057-4.594
													c0.354-0.925,6.6-0.618,11.416,2.926c0.953,0.701,5.52,4.23,6.149,10.039C222.424,139.25,220.4,143.121,219.848,143.036
													z"/>
												<g>
													<path style="fill:#E87578;" d="M196.19,145.247c1.205,1.925,1.733,1.126,0.27,2.042
														c-1.463,0.916-3.626,0.097-4.831-1.828c-1.205-1.925-0.995-4.229,0.468-5.144
														C193.56,139.401,194.986,143.321,196.19,145.247z"/>
												</g>
												<g>
													<path style="fill:#E87578;" d="M217.252,144.64c-1.092,1.992-0.649,1.194,0.864,2.025
														c1.514,0.83,3.626-0.111,4.718-2.103c1.092-1.991,0.751-4.279-0.763-5.109
														C220.558,138.623,218.344,142.649,217.252,144.64z"/>
												</g>
												<path style="fill:#08051A;" d="M191.485,139.653c2.56,1.022,3.671,3.795,4.307,6.286
													c0.211-1.377,0.059-2.714,0.126-4.084c0.065-1.327,0.252-2.667,0.295-4.003c0.061-1.914,0.123-3.828,0.184-5.742"/>
												<path style="fill:#08051A;" d="M220.866,138.374c-0.325,0.96-0.564,1.844-0.992,2.753
													c-0.3,0.638-0.487,1.359-0.726,2.023c-0.185,0.515-0.669,1.323-0.669,1.865c-0.282-2.414-0.564-4.827-0.845-7.241
													c-0.249-2.135-0.257-4.272-0.79-6.35c-0.154-0.6-0.378-2.368-0.863-2.758c2.215,1.784,3.946,4.32,4.418,7.124"/>
												
													<path style="fill:none;stroke:#08051A;stroke-width:0.778;stroke-linecap:round;stroke-linejoin:round;stroke-miterlimit:10;" d="
													M192.908,143.55c0.494,0.086,0.898,0.544,0.921,1.045c-0.182-0.073-0.413,0.021-0.492,0.2
													c-0.079,0.179,0.007,0.414,0.183,0.499"/>
												
													<path style="fill:none;stroke:#08051A;stroke-width:0.778;stroke-linecap:round;stroke-linejoin:round;stroke-miterlimit:10;" d="
													M221.098,142.503c-0.484,0.286-0.86,0.749-1.044,1.28c0.218-0.062,0.474,0.087,0.527,0.307
													c0.054,0.221-0.104,0.47-0.327,0.515"/>
												<g>
													<path style="fill:#08051A;" d="M209.212,149.501c-1.361,0.868-3.071,1.169-4.646,0.819
														c0.266,0.758,0.969,1.659,1.69,2.012c0.722,0.353,1.632,0.345,2.3-0.102
														C209.224,151.784,209.472,150.261,209.212,149.501z"/>
													
														<path style="fill:none;stroke:#08051A;stroke-width:0.778;stroke-linecap:round;stroke-linejoin:round;stroke-miterlimit:10;" d="
														M206.981,142.85c-0.014,0.762-0.028,1.525-0.041,2.288c0.378-0.197,0.756-0.393,1.133-0.59
														c0.138-0.072,0.291-0.145,0.442-0.11c0.286,0.068,0.344,0.456,0.274,0.742c-0.174,0.712-0.782,1.299-1.501,1.447"/>
													<path style="fill:#08051A;" d="M215.713,140.019c-0.076,0.13-0.455,0.036-1.213-0.152
														c-1.522-0.377-3.629-1.23-3.526-1.762c0.062-0.322,0.906-0.403,1.027-0.414
														C214.03,137.495,215.933,139.645,215.713,140.019z"/>
													<path style="fill:#08051A;" d="M198.317,139.32c0.083,0.125,0.456,0.009,1.202-0.221
														c1.497-0.464,3.553-1.437,3.419-1.962c-0.08-0.318-0.928-0.35-1.049-0.354
														C199.852,136.704,198.076,138.959,198.317,139.32z"/>
												</g>
											</g>
										</g>
									</g>
								</g>
							</g>
						</g>
					</g>
					<g>
						<path style="fill:#FFFFFF;" d="M213.285,377.116c0,0-1.472,2.456-0.192,4.484c1.281,2.028,2.914,4.86,3.245,9.57
							c0.331,4.711,12.018,4.699,14.79,0.502c2.103-3.183-4.504-10.894-4.504-10.894"/>
						<path style="fill:#454658;" d="M214.541,369.154c-2.164,0.025-1.872,7.149-1.303,9.062c0.568,1.913,2.556,3.765,3.081,6.691
							c0.524,2.926,0.731,6.657,8.348,5.9c4.671-0.464,6.156-4.784,3.115-8.579c-3.041-3.795-4.507-5.483-5.303-10.334
							c-0.796-4.851-9.253-0.67-7.242,2.466c2.011,3.136-0.568,2.548-0.688-0.455C214.43,370.901,214.541,369.154,214.541,369.154z"
							/>
						<g>
							
								<path style="fill:none;stroke:#FFFFFF;stroke-width:0.7978;stroke-linecap:round;stroke-linejoin:round;stroke-miterlimit:10;" d="
								M220.148,383.683c1.481-0.74,3.192-1.011,4.829-0.764"/>
							<g>
								
									<path style="fill:none;stroke:#FFFFFF;stroke-width:0.7978;stroke-linecap:round;stroke-linejoin:round;stroke-miterlimit:10;" d="
									M219.245,379.965c0.71-0.632,1.69-0.951,2.636-0.859c-0.721,0.396-1.363,1.001-1.844,1.668
									c0.774-0.644,1.758-0.869,2.753-0.716c-1.127,0.451-2.239,1.266-3.015,2.2c1.321-0.806,2.917-1.176,4.465-1.175
									c-1.52,0.445-1.802,0.274-2.943,1.373"/>
								
									<path style="fill:none;stroke:#FFFFFF;stroke-width:0.7978;stroke-linecap:round;stroke-linejoin:round;stroke-miterlimit:10;" d="
									M220.244,379.349c0,0-2.833,0.68-3.087-0.223C216.902,378.223,220.244,379.349,220.244,379.349z"/>
								
									<path style="fill:none;stroke:#FFFFFF;stroke-width:0.7978;stroke-linecap:round;stroke-linejoin:round;stroke-miterlimit:10;" d="
									M220.244,379.349c0,0,1.183-2.648,2.263-2.728C223.588,376.54,221.891,379.11,220.244,379.349z"/>
							</g>
						</g>
						<path style="fill:#FFFFFF;" d="M224.704,389.698c2.237-0.577,3.972-1.609,4.042-2.968c0.07-1.358-4.393-0.625-5.817-0.368
							c-1.424,0.257-4.558,2.356-4.489,2.561C218.509,389.128,221.402,390.549,224.704,389.698z"/>
					</g>
				</g>
				<g>
					<g>
						<path style="fill:#E87578;" d="M204.495,231.487l-0.001-0.031c-0.275-0.012-0.553-0.043-0.831-0.105
							c-2.525-0.564-4.115-3.069-3.551-5.594c0.452-2.022,2.147-3.44,4.101-3.638l0-0.004l0.072-0.006
							c0.01-0.001,0.02-0.002,0.031-0.003l50.372-4.241c0.134-0.015,0.269-0.027,0.405-0.034l0.179-0.015l0,0.009
							c0.626-0.02,1.263,0.028,1.903,0.171c4.086,0.913,6.658,4.965,5.745,9.052c-0.792,3.544-3.947,5.946-7.436,5.925l0,0.004
							l-0.063-0.002c-0.023,0-0.046-0.001-0.07-0.002L204.495,231.487z"/>
					</g>
				</g>
				<g>
					<g>
						<path style="fill:#E87578;" d="M227.384,258.912l0.011-0.029c0.263,0.082,0.535,0.145,0.819,0.18
							c2.568,0.318,4.907-1.507,5.225-4.075c0.254-2.056-0.866-3.962-2.64-4.805l0.001-0.003l-0.065-0.03
							c-0.009-0.004-0.018-0.009-0.028-0.013l-46.014-20.929c-0.122-0.059-0.245-0.115-0.37-0.168l-0.163-0.074l-0.003,0.009
							c-0.583-0.23-1.199-0.399-1.849-0.479c-4.155-0.514-7.94,2.438-8.454,6.593c-0.446,3.604,1.718,6.927,5.011,8.081
							l-0.001,0.004l0.06,0.019c0.022,0.008,0.044,0.014,0.066,0.022L227.384,258.912z"/>
					</g>
				</g>
				
					<path style="fill:none;stroke:#08051A;stroke-width:0.778;stroke-linecap:round;stroke-linejoin:round;stroke-miterlimit:10;" d="
					M190.032,177.329c-1.206,3.873-2.982,7.569-5.252,10.93c-2.118,3.136-3.361,6.555-2.684,10.432
					c0.563,3.225,2.465,6.028,3.845,8.997c2.142,4.607,3.052,9.78,2.612,14.842"/>
				
					<path style="fill:none;stroke:#08051A;stroke-width:0.778;stroke-linecap:round;stroke-linejoin:round;stroke-miterlimit:10;" d="
					M228.233,218.765c0.76-5.577,1.521-11.154,2.281-16.731c0.457-3.35,0.908-6.803,0.051-10.074
					c-1.481-5.649-6.733-10.293-6.296-16.116"/>
				<g>
					<path style="fill:#E87578;" d="M229.794,250.987c0.349-0.223,0.754-0.265,1.181-0.226c0.895-0.068,2.301,0.423,3.948,0.777
						c2.601,0.559,4.808,0.554,4.483,2.065c-0.195,0.91-1.139,1.544-2.42,1.789c2.694,3.179,4.964,6.845,4.972,7.069
						c0.024,0.657-0.865,1.109-1.134,1.391c-0.241,0.253,0.36,0.597-0.312,1.225c-0.431,0.256-0.898,0.453-1.4,0.595
						c-0.477-0.013-0.807-0.244-0.887-0.395c-0.132-0.247-0.78,0.638-1.504,0.633c-0.033-0.003-0.067-0.015-0.1-0.019
						c-0.684-0.098-0.998-1.051-1.249-1.276c-0.214-0.192-0.779,0.725-2.113,0.125c-1.557-0.907-3.097-2.338-4.448-4.469
						C224.507,253.48,226.685,252.975,229.794,250.987z"/>
					
						<path style="fill:none;stroke:#08051A;stroke-width:0.778;stroke-linecap:round;stroke-linejoin:round;stroke-miterlimit:10;" d="
						M232.998,261.605c0.964,1.325,1.927,2.651,2.891,3.976"/>
					
						<path style="fill:none;stroke:#08051A;stroke-width:0.778;stroke-linecap:round;stroke-linejoin:round;stroke-miterlimit:10;" d="
						M235.459,260.651c1.149,1.644,2.297,3.288,3.446,4.933"/>
					
						<path style="fill:none;stroke:#08051A;stroke-width:0.778;stroke-linecap:round;stroke-linejoin:round;stroke-miterlimit:10;" d="
						M237.128,259.125c1.19,1.556,2.38,3.112,3.57,4.668"/>
					
						<path style="fill:none;stroke:#08051A;stroke-width:0.778;stroke-linecap:round;stroke-linejoin:round;stroke-miterlimit:10;" d="
						M234.107,252.813c1.796,0.816,3.34,2.174,4.378,3.852"/>
				</g>
				<g>
					<path style="fill:#E87578;" d="M206.831,224.526c-0.102-0.402-0.368-0.71-0.706-0.973c-0.606-0.662-1.967-1.267-3.41-2.137
						c-2.279-1.373-3.884-2.889-4.681-1.564c-0.48,0.797-0.227,1.905,0.539,2.961c-4.14,0.473-8.304,1.591-8.464,1.749
						c-0.467,0.462-0.128,1.4-0.126,1.79c0.002,0.349-0.671,0.188-0.611,1.106c0.139,0.482,0.345,0.945,0.614,1.392
						c0.357,0.317,0.755,0.374,0.917,0.319c0.266-0.09,0.132,0.999,0.663,1.491c0.026,0.02,0.059,0.035,0.085,0.055
						c0.566,0.397,1.446-0.083,1.784-0.075c0.287,0.007,0.072,1.061,1.455,1.538c1.756,0.404,3.858,0.416,6.302-0.212
						C208.977,229.963,207.736,228.104,206.831,224.526z"/>
					
						<path style="fill:none;stroke:#08051A;stroke-width:0.778;stroke-linecap:round;stroke-linejoin:round;stroke-miterlimit:10;" d="
						M197.226,230.071c-1.61,0.306-3.219,0.612-4.829,0.918"/>
					
						<path style="fill:none;stroke:#08051A;stroke-width:0.778;stroke-linecap:round;stroke-linejoin:round;stroke-miterlimit:10;" d="
						M196.085,227.691c-1.963,0.412-3.926,0.824-5.889,1.236"/>
					
						<path style="fill:none;stroke:#08051A;stroke-width:0.778;stroke-linecap:round;stroke-linejoin:round;stroke-miterlimit:10;" d="
						M195.913,225.437c-1.933,0.319-3.865,0.639-5.798,0.958"/>
				</g>
				<path style="fill:#92D6AA;" d="M216.646,146.711c0-0.439-0.26-0.835-0.668-0.998c-2.481-0.997-5.943-2.216-7.934-2.162
					c-2.635,0.07-7.824,2.146-9.908,3.024c-0.401,0.169-0.658,0.559-0.658,0.993v5.739c0,0.281,0.103,0.551,0.298,0.752
					c1.934,1.993,4.636,3.886,7.929,3.886c4.154,0,7.464-1.601,9.733-3.191c0.768-0.538,1.208-1.423,1.208-2.361V146.711z"/>
				<g>
					
						<path style="fill:none;stroke:#92D6AA;stroke-width:1.0224;stroke-linecap:round;stroke-linejoin:round;stroke-miterlimit:10;" d="
						M214.546,146.207c0.273-0.069,4.747-5.837,6.319-6.591"/>
					
						<path style="fill:none;stroke:#92D6AA;stroke-width:1.0224;stroke-linecap:round;stroke-linejoin:round;stroke-miterlimit:10;" d="
						M215.731,153.826c0,0,3.247-3.821,3.598-6.521"/>
				</g>
				<g>
					
						<path style="fill:none;stroke:#92D6AA;stroke-width:1.0224;stroke-linecap:round;stroke-linejoin:round;stroke-miterlimit:10;" d="
						M199.11,146.207c-0.273-0.069-4.747-5.837-6.319-6.591"/>
					
						<path style="fill:none;stroke:#92D6AA;stroke-width:1.0224;stroke-linecap:round;stroke-linejoin:round;stroke-miterlimit:10;" d="
						M198.295,153.002c0,0-3.615-2.998-3.967-5.697"/>
				</g>
				
					<path style="fill:none;stroke:#08051A;stroke-width:0.778;stroke-linecap:round;stroke-linejoin:round;stroke-miterlimit:10;" d="
					M199.875,142.795c-0.044-0.708,0.493-1.406,1.189-1.546c0.695-0.139,1.46,0.299,1.692,0.969"/>
				
					<path style="fill:none;stroke:#08051A;stroke-width:0.778;stroke-linecap:round;stroke-linejoin:round;stroke-miterlimit:10;" d="
					M211.201,142.34c0-0.686,0.692-1.286,1.371-1.189c0.679,0.097,1.174,0.868,0.982,1.526"/>
			</g>
			<g>
				<g>
					<g>
						<g>
							<path style="fill:#E87578;" d="M251.626,130.856l-0.026,0.016c-0.156-0.219-0.329-0.429-0.528-0.623
								c-1.802-1.764-4.693-1.734-6.457,0.069c-1.412,1.443-1.671,3.582-0.795,5.283l-0.003,0.002l0.033,0.061
								c0.005,0.009,0.01,0.018,0.014,0.027l23.28,43.413c0.059,0.118,0.121,0.234,0.187,0.349l0.083,0.154l0.008-0.005
								c0.316,0.522,0.693,1.017,1.15,1.464c2.916,2.854,7.593,2.804,10.447-0.111c2.476-2.529,2.763-6.382,0.894-9.223l0.003-0.002
								l-0.035-0.051c-0.013-0.019-0.026-0.037-0.039-0.056L251.626,130.856z"/>
						</g>
						<g>
							<g>
								<g>
									<path style="fill:#454658;" d="M252.381,127.825c-0.223,0.263-0.377,0.655-0.643,0.861
										c-0.369,0.287-1.071,0.397-1.524,0.409c-0.611,0.016-1.252-0.2-1.637-0.675c-0.389-0.48-0.464-1.132-0.565-1.742
										c-0.124-0.755-0.311-1.501-0.555-2.226c-0.185-0.549-0.377-1.411-0.847-1.79c-0.803-0.647-2.176-0.788-3.139-1.086
										c-0.802-0.247-1.931-0.425-2.288,0.576c-0.175,0.492-0.09,1.033-0.021,1.55c0.062,0.461,0.166,1.165-0.147,1.566
										c-0.273,0.348-0.776,0.199-0.855,0.818c-0.054,0.429,0.143,0.844,0.326,1.236c0.183,0.392,0.361,0.822,0.267,1.244
										c-0.066,0.299-0.261,0.552-0.362,0.84c-0.266,0.761,0.156,1.577,0.58,2.264c1.124,1.82,2.675,5.291,5.129,5.42
										c1.689,0.089,3.164-1.117,4.257-2.407c0.94-1.11,2.252-2.21,3.083-3.351c0.589-0.809,0.577-2.019,1.45-2.67
										c0.146-0.109,0.314-0.214,0.377-0.385c0.071-0.196-0.022-0.415-0.145-0.584
										C254.346,126.625,253.119,126.956,252.381,127.825z"/>
									<path style="fill:#454658;" d="M248.665,119.575c-0.437-0.021-0.88-0.02-1.314,0.038c-0.008,0.001-0.016,0.002-0.024,0.003
										c-0.229,0.031-0.613,0.066-0.764,0.274c0,0,1.744,1.942,2.331,2.296l0.083,0.141c0.431-0.026,1.003-0.251,1.371-0.467
										c0.241-0.142,0.458-0.339,0.575-0.593c0.002-0.003,0.003-0.007,0.004-0.01c0.157-0.351,0.094-0.841-0.144-1.145
										C250.381,119.596,249.243,119.603,248.665,119.575z"/>
								</g>
							</g>
							<g>
								<path style="fill:#BFC9E2;" d="M234.012,110.503l0.224-0.225c-0.071-0.043-7.426-7.329-9.751-9.651l0.135,0.558
									L234.012,110.503z"/>
								<path style="fill:#BFC9E2;" d="M247.664,124.792c0,0,3.424-3.323,3.215-3.759s-1.791,1.069-1.791,1.069
									s-9.74-9.815-10.124-10.083c-0.384-0.268-2.89-0.083-2.89-0.083l-1.057-1.052l-0.47,0.472l1.057,1.052
									c0,0-0.176,2.507,0.094,2.89c0.27,0.383,10.124,10.083,10.124,10.083s-1.499,1.588-1.062,1.795
									c0.437,0.207,3.746-3.23,3.746-3.23"/>
								<path style="fill:#92D6AA;" d="M235.734,112.068c0,0-0.996,1.556-1.235,1.24c-0.238-0.316,0.117-0.875,0.18-1.054
									c0.173-0.491-1.395-1.616-0.97-2.202c0.425-0.586,1.538,1.076,2.013,0.837c0.25-0.126,0.914-0.288,0.994,0.029
									C236.796,111.235,235.734,112.068,235.734,112.068z"/>
								<path style="fill:#BFC9E2;" d="M247.201,124.172c0,0,4.707,3.718,4.6,4.086c-0.107,0.367-1.649,2.153-1.232,2.449
									c0.416,0.296,4.923-4.229,4.506-4.525c-0.416-0.296-2.573,1.588-2.622,1.421c-0.049-0.167-4.141-4.547-4.141-4.547
									L247.201,124.172z"/>
							</g>
							<path style="fill:#454658;" d="M242.195,121.803c0,0,5.676,0.58,5.676,1.696c0,0.731-1.935,2.458-3.514,2.024"/>
						</g>
						<path style="fill:#454658;" d="M252.583,131.387c0,0,3.186,3.048,3.031,3.562c-0.155,0.514-8.514,6.204-9.052,6.192
							c-0.538-0.012-3.845-7.688-3.845-7.688"/>
					</g>
				</g>
				<path style="fill:#E87578;" d="M292.015,125.52l-24.604,47.84c-1.451,3.935,0.563,8.301,4.498,9.752
					c3.103,1.144,6.474,0.133,8.472-2.276l-0.004,0.006l0.011-0.015c0.121-0.146,0.237-0.295,0.347-0.45
					c0.098-0.138,0.179-0.291,0.268-0.437l30.406-42.74c5.58-7.927-0.727-15.359-5.514-17.124
					C300.497,118.086,294.551,120.51,292.015,125.52z"/>
				<g>
					<g>
						<g>
							<g>
								<g>
									<g>
										<path style="fill:#FF8B6A;" d="M313.362,410.837c2.067-1.741,0.182-5.259,0.092-11.986
											c-0.065-4.863,0.894-5.011,6.091-24.537c2.072-7.784,2.648-10.857,3.198-14.808c0.413-2.965,0.616-6.43,0.466-11.248
											c-0.231-7.405-1.603-18.06-7.032-30.912c-1.296-0.911-4.098-2.582-7.876-2.599c-1.685-0.008-5.961,0.091-8.335,3.24
											c-0.869,1.153-1.275,2.774-1.102,5.135c-0.049,0.056,5.71,62.573,4.985,74.961c-0.542,9.274-2.347,9.843-2.815,9.831
											C305.265,410.331,310.885,412.923,313.362,410.837z"/>
									</g>
								</g>
							</g>
							<g>
								<path style="fill:#08051A;" d="M294.874,404.387c0,0,2.508-1.923,3.406-3.745c0.898-1.821,2.216-6.216,2.613-6.315
									c0.397-0.1,3.83,0.618,4.208,0.967c0.378,0.349-4.936,7.273-4.629,7.38c0.307,0.107,2.602,3.481,1.632,4.135
									c-0.97,0.654-5.339,0.605-5.339,0.605l-1.746-2.184L294.874,404.387z"/>
								<path style="fill:#454658;" d="M286.525,410.078c0,0-0.022-1.62,0.924-2.227c0.947-0.607,5.367-1.745,5.655-1.922
									c0.288-0.177,1.845-1.684,2.329-1.831c0.484-0.147,4.707,2.41,5.563,2.105c0.856-0.306-2.283-2.285-1.945-2.724
									c0.339-0.439,3.731-4.615,3.816-5.044c0.086-0.429,6.033,1.96,10.743-0.086l2.304,7.149l0.323,1.886l-2.014,0.876
									l-5.901,0.669l-7.68,2.554l-3.961,1.218l-6.324-0.128l-3.996-2.15L286.525,410.078z"/>
								<path style="fill:#FFFFFF;" d="M286.215,411.245c-0.047-0.082-0.187-1.464,0.158-1.682c0.345-0.218,0.852,1.446,1.11,1.465
									c0.258,0.02,4.535,1.58,11.338,0.226c6.803-1.354,7.558-3.265,10.748-3.97c3.19-0.704,6.498-0.156,6.347-1.785
									c0.157,0.245,1.834,2.926,0.73,4.628c-0.596,0.917-1.721,1.121-3.484,1.413c-3.163,0.525-4.335,0.319-6.68,0.211
									c-0.994-0.046-2.103,1.288-5.019,2.105C298.546,414.674,288.58,415.392,286.215,411.245z"/>
								<g>
									<path style="fill:#454658;" d="M295.266,404.667c-0.114,0.013-0.227-0.051-0.272-0.162
										c-0.054-0.134,0.011-0.287,0.145-0.341c1.454-0.586,3.049-0.825,4.611-0.692c0.144,0.012,0.251,0.139,0.239,0.283
										c-0.012,0.144-0.14,0.253-0.283,0.238c-1.481-0.126-2.993,0.101-4.371,0.656
										C295.312,404.659,295.288,404.665,295.266,404.667z"/>
								</g>
								<g>
									<path style="fill:#454658;" d="M299.431,403.786c-0.05,0.006-0.102-0.003-0.15-0.028c-0.244-0.127-0.497-0.276-0.756-0.429
										c-0.568-0.335-1.154-0.681-1.711-0.828c-0.14-0.036-0.223-0.179-0.186-0.32c0.037-0.139,0.181-0.222,0.319-0.186
										c0.628,0.164,1.246,0.529,1.845,0.883c0.251,0.148,0.496,0.293,0.732,0.416c0.128,0.067,0.178,0.225,0.112,0.353
										C299.592,403.727,299.515,403.776,299.431,403.786z"/>
								</g>
								<g>
									<path style="fill:#454658;" d="M295.007,404.487c-0.092,0.01-0.187-0.028-0.244-0.109
										c-0.083-0.119-0.054-0.282,0.065-0.365c1.228-0.859,4.398-2.643,6.361-2.646c0.145-0.001,0.263,0.116,0.263,0.26
										c0.001,0.145-0.117,0.267-0.26,0.263c-1.661,0.009-4.6,1.527-6.063,2.552C295.09,404.467,295.049,404.482,295.007,404.487z
										"/>
								</g>
								<g>
									<path style="fill:#454658;" d="M301.368,401.43c-0.054,0.006-0.111-0.004-0.162-0.034c-0.727-0.428-1.892-0.907-2.71-1.116
										c-0.14-0.036-0.225-0.178-0.189-0.318c0.036-0.14,0.178-0.225,0.318-0.189c0.859,0.219,2.082,0.723,2.846,1.171
										c0.125,0.074,0.166,0.234,0.093,0.359C301.521,401.376,301.447,401.421,301.368,401.43z"/>
								</g>
								<g>
									<path style="fill:#454658;" d="M297.607,401.691c-0.09,0.01-0.183-0.027-0.24-0.105c-0.086-0.117-0.061-0.28,0.056-0.366
										c1.242-0.912,3.421-1.671,4.961-1.732c0.144-0.006,0.266,0.107,0.272,0.251c0.006,0.145-0.107,0.268-0.252,0.272
										c-1.449,0.059-3.502,0.772-4.671,1.632C297.694,401.67,297.651,401.686,297.607,401.691z"/>
								</g>
								<g>
									<path style="fill:#454658;" d="M303.065,398.914c-0.04,0.004-0.081,0-0.122-0.015c-1.195-0.455-2.966-0.257-4.031,0.447
										c-0.121,0.081-0.283,0.047-0.363-0.073c-0.08-0.121-0.047-0.283,0.074-0.362c1.211-0.803,3.148-1.018,4.506-0.501
										c0.135,0.051,0.203,0.203,0.152,0.338C303.245,398.842,303.16,398.904,303.065,398.914z"/>
								</g>
								<g>
									<path style="fill:#454658;" d="M302.537,399.838c-0.063,0.007-0.127-0.008-0.182-0.047l-0.41-0.3
										c-0.739-0.546-1.856-1.369-2.547-1.59c-0.138-0.045-0.214-0.192-0.169-0.33c0.043-0.138,0.191-0.214,0.329-0.17
										c0.773,0.248,1.886,1.068,2.698,1.667l0.405,0.297c0.117,0.084,0.144,0.248,0.06,0.365
										C302.676,399.793,302.608,399.83,302.537,399.838z"/>
								</g>
							</g>
						</g>
						<g>
							<g>
								<path style="fill:#FF8B6A;" d="M305.402,229.498c0,0-11.463,83.696-6.548,96.798c4.915,13.101,21.189,7.425,21.665,0.184
									c0.475-7.24,22.048-86.328,22.048-86.328L305.402,229.498z"/>
							</g>
						</g>
						<path style="fill:#92D6AA;" d="M317.201,386.766c-0.267,0.919-1.099,1.547-2.057,1.562c-1.714,0.027-3.837-0.115-6.199-0.674
							c-2.121-0.503-3.902-1.217-5.311-1.911c-0.7-0.345-1.146-1.042-1.187-1.821c-0.639-12.125-4.503-56.996-4.598-57.25
							c-4.951-13.201,6.021-93.891,6.49-97.32l0.168-1.228c4.905-9.241,15.761-13.552,25.317-10.309
							c8.886,3.016,14.762,11.925,14.057,21.596c-1.28,4.728-2.561,9.456-3.841,14.184c-6.763,23.927-12.927,48.244-18.45,72.954
							c-0.136,0.61-0.272,1.22-0.408,1.829c1.852,6.618,2.895,13.294,3.1,19.844c0.139,4.469-0.011,8.101-0.475,11.43
							c-0.571,4.096-1.172,7.225-3.224,14.938C319.164,379.921,318.054,383.829,317.201,386.766z"/>
						
							<path style="fill:none;stroke:#08051A;stroke-width:0.778;stroke-linecap:round;stroke-linejoin:round;stroke-miterlimit:10;" d="
							M342.81,236.113c0,0-4.105,2.376-7.408,3.14c0,0,0.056,8.335,0.149,13.318c0,0,2.864-1.225,4.5-3.142
							C341.688,247.512,342.81,236.113,342.81,236.113z"/>
						
							<path style="fill:none;stroke:#08051A;stroke-width:0.778;stroke-linecap:round;stroke-linejoin:round;stroke-miterlimit:10;" d="
							M325.32,317.346"/>
						
							<path style="fill:none;stroke:#08051A;stroke-width:0.778;stroke-linecap:round;stroke-linejoin:round;stroke-miterlimit:10;" d="
							M338.484,253.236"/>
					</g>
					<g>
						<g>
							<g>
								<g>
									<g>
										<path style="fill:#FF8B6A;" d="M353.795,409.54c1.783-2.031-0.607-5.227-1.703-11.865
											c-0.792-4.798,0.133-5.088,2.349-25.172c0.883-8.006,0.993-11.131,0.945-15.12c-0.035-2.993-0.353-6.449-1.223-11.191
											c-1.337-7.287-4.288-17.617-11.58-29.512c-1.418-0.706-4.438-1.94-8.176-1.391c-1.667,0.245-5.88,0.982-7.756,4.451
											c-0.687,1.27-0.845,2.934-0.321,5.242c-0.04,0.063,15.012,61.013,16.15,73.37c0.852,9.251-0.847,10.083-1.312,10.142
											C345.713,410.251,351.659,411.973,353.795,409.54z"/>
									</g>
								</g>
							</g>
							<g>
								<path style="fill:#08051A;" d="M333.998,403.398c0,0,2.508-1.923,3.406-3.745c0.898-1.821,2.216-6.216,2.612-6.315
									c0.397-0.1,3.83,0.618,4.208,0.967c0.378,0.349-4.936,7.273-4.629,7.38c0.307,0.107,2.602,3.481,1.632,4.135
									c-0.971,0.654-5.339,0.605-5.339,0.605l-1.746-2.184L333.998,403.398z"/>
								<path style="fill:#454658;" d="M325.65,409.089c0,0-0.022-1.619,0.924-2.227c0.946-0.607,5.367-1.745,5.655-1.922
									c0.288-0.177,1.845-1.684,2.329-1.831c0.484-0.146,4.707,2.41,5.563,2.105c0.856-0.306-2.283-2.285-1.945-2.724
									c0.339-0.439,3.731-4.615,3.817-5.044c0.086-0.429,6.033,1.961,10.743-0.086l2.304,7.149l0.323,1.886l-2.015,0.876
									l-5.901,0.669l-7.68,2.554l-3.961,1.218l-6.324-0.128l-3.996-2.15L325.65,409.089z"/>
								<path style="fill:#FFFFFF;" d="M325.34,410.256c-0.047-0.082-0.187-1.464,0.158-1.682s0.852,1.446,1.11,1.465
									c0.258,0.02,4.535,1.58,11.338,0.226c6.803-1.354,7.558-3.265,10.748-3.97c3.19-0.704,6.498-0.156,6.347-1.785
									c0.157,0.245,1.834,2.926,0.729,4.628c-0.595,0.917-1.721,1.121-3.484,1.413c-3.163,0.525-4.335,0.319-6.68,0.211
									c-0.994-0.046-2.103,1.288-5.019,2.105C337.671,413.686,327.704,414.403,325.34,410.256z"/>
								<g>
									<path style="fill:#454658;" d="M334.39,403.679c-0.114,0.013-0.227-0.051-0.272-0.162
										c-0.054-0.134,0.011-0.287,0.145-0.341c1.454-0.585,3.049-0.825,4.611-0.692c0.144,0.012,0.251,0.139,0.239,0.283
										c-0.012,0.145-0.14,0.253-0.283,0.238c-1.481-0.126-2.993,0.101-4.371,0.656
										C334.436,403.671,334.413,403.676,334.39,403.679z"/>
								</g>
								<g>
									<path style="fill:#454658;" d="M338.556,402.797c-0.05,0.006-0.102-0.003-0.15-0.028c-0.244-0.127-0.497-0.276-0.756-0.429
										c-0.568-0.335-1.154-0.681-1.712-0.828c-0.14-0.036-0.223-0.179-0.186-0.32c0.037-0.139,0.182-0.222,0.319-0.186
										c0.628,0.165,1.246,0.53,1.845,0.883c0.251,0.148,0.496,0.293,0.732,0.416c0.128,0.067,0.178,0.225,0.111,0.353
										C338.717,402.738,338.639,402.788,338.556,402.797z"/>
								</g>
								<g>
									<path style="fill:#454658;" d="M334.131,403.498c-0.092,0.01-0.187-0.028-0.244-0.109
										c-0.083-0.119-0.054-0.282,0.065-0.365c1.228-0.859,4.398-2.643,6.361-2.646c0.145-0.001,0.263,0.116,0.263,0.26
										c0.001,0.145-0.117,0.267-0.26,0.263c-1.661,0.009-4.599,1.527-6.063,2.552
										C334.215,403.479,334.173,403.494,334.131,403.498z"/>
								</g>
								<g>
									<path style="fill:#454658;" d="M340.492,400.441c-0.054,0.006-0.111-0.004-0.162-0.034
										c-0.727-0.428-1.892-0.907-2.71-1.116c-0.14-0.036-0.224-0.178-0.189-0.318c0.036-0.14,0.178-0.225,0.318-0.189
										c0.859,0.219,2.082,0.723,2.846,1.171c0.125,0.073,0.166,0.234,0.093,0.358
										C340.645,400.388,340.572,400.432,340.492,400.441z"/>
								</g>
								<g>
									<path style="fill:#454658;" d="M336.731,400.703c-0.09,0.01-0.183-0.027-0.24-0.105c-0.086-0.117-0.061-0.28,0.056-0.366
										c1.242-0.912,3.421-1.671,4.961-1.732c0.144-0.006,0.266,0.107,0.272,0.251c0.006,0.145-0.107,0.268-0.252,0.272
										c-1.449,0.059-3.502,0.772-4.671,1.632C336.819,400.682,336.775,400.698,336.731,400.703z"/>
								</g>
								<g>
									<path style="fill:#454658;" d="M342.19,397.926c-0.04,0.004-0.081,0-0.122-0.015c-1.195-0.455-2.966-0.257-4.031,0.447
										c-0.121,0.081-0.283,0.047-0.363-0.073c-0.08-0.121-0.047-0.283,0.074-0.362c1.211-0.803,3.148-1.018,4.506-0.501
										c0.135,0.051,0.203,0.203,0.152,0.338C342.37,397.854,342.284,397.915,342.19,397.926z"/>
								</g>
								<g>
									<path style="fill:#454658;" d="M341.662,398.849c-0.063,0.007-0.127-0.008-0.182-0.047l-0.41-0.3
										c-0.739-0.546-1.856-1.369-2.547-1.59c-0.138-0.045-0.214-0.192-0.169-0.33c0.043-0.138,0.191-0.214,0.329-0.17
										c0.773,0.248,1.886,1.068,2.698,1.667l0.405,0.297c0.118,0.084,0.144,0.248,0.06,0.365
										C341.8,398.805,341.732,398.841,341.662,398.849z"/>
								</g>
							</g>
						</g>
						<g>
							<g>
								<path style="fill:#FF8B6A;" d="M318.78,231.435c0,0,1.195,84.469,8.015,96.687c6.821,12.218,22.062,4.169,21.449-3.061
									c-0.614-7.23,8.877-88.656,8.877-88.656L318.78,231.435z"/>
							</g>
						</g>
						<path style="fill:#92D6AA;" d="M353.987,385.165c-0.126,0.949-0.855,1.694-1.8,1.853c-1.691,0.283-3.81,0.461-6.23,0.261
							c-2.172-0.18-4.041-0.619-5.537-1.094c-0.743-0.236-1.289-0.859-1.446-1.623c-2.447-11.892-12.984-55.68-13.116-55.916
							c-6.872-12.311-8.102-93.735-8.151-97.195l-0.018-1.24c3.466-9.871,13.555-15.759,23.489-13.982
							c9.237,1.652,16.38,9.581,17.131,19.248c-0.558,4.866-1.116,9.733-1.674,14.599c-3.105,24.67-5.559,49.635-7.321,74.894
							c-0.043,0.624-0.086,1.247-0.129,1.87c2.822,6.266,4.852,12.71,6.035,19.156c0.807,4.398,1.201,8.011,1.241,11.372
							c0.048,4.135-0.077,7.319-0.952,15.253C354.903,378.103,354.391,382.134,353.987,385.165z"/>
						
							<path style="fill:none;stroke:#08051A;stroke-width:0.778;stroke-linecap:round;stroke-linejoin:round;stroke-miterlimit:10;" d="
							M325.858,328.646c-6.872-12.311-8.102-93.735-8.151-97.195l-0.018-1.24c3.466-9.871,13.555-15.759,23.489-13.982"/>
						
							<path style="fill:none;stroke:#08051A;stroke-width:0.778;stroke-linecap:round;stroke-linejoin:round;stroke-miterlimit:10;" d="
							M351.624,315.311"/>
						
							<path style="fill:none;stroke:#08051A;stroke-width:0.778;stroke-linecap:round;stroke-linejoin:round;stroke-miterlimit:10;" d="
							M355.042,249.954"/>
					</g>
				</g>
				<g>
					<g>
						<g>
							<g>
								<path style="fill:#92D6AA;" d="M361.292,231.358c-3.1-20.356-7.147-41.956-12.416-64.582
									c-3.558-15.281-7.403-29.869-11.424-43.738c-2.677-9.859-12.871-12.639-29.196-9.236
									c-11.878,2.477-19.852,12.848-18.965,19.65c5.053,38.709,7.158,66.256,12.882,102.228
									c5.108,1.954,16.204,3.471,25.258,3.754C343.289,239.932,355.393,234.52,361.292,231.358z"/>
							</g>
						</g>
						<g>
							<g>
								<g>
									<path style="fill:#08051A;" d="M299.036,70.891c-0.174,0.38-13.985,0.77-7.898,15.801
										c1.745,4.309,15.86-8.669,14.245-9.204C303.769,76.954,299.036,70.891,299.036,70.891z"/>
									<g>
										<g>
											<path style="fill:#E87578;" d="M313.272,114.659l-2.938-0.099c-6.18-0.765-9.985,6.81-8.048,11.001
												C304.224,129.753,319.847,119.012,313.272,114.659z"/>
											<path style="fill:#E87578;" d="M306.02,116.078c0.03,0.061,0.834,0.616,1.704,1.205c1.701,1.152,3.95,1.312,5.7,0.235
												c0.379-0.233,0.704-0.501,0.919-0.806c0.504-6.609,1.008-13.219,1.511-19.829l-8.571,2.612L306.02,116.078z"/>
											<path style="fill:#08051A;" d="M306.168,114.137l1.115-14.641l7.76-2.066
												C313.685,102.892,310.51,110.643,306.168,114.137z"/>
										</g>
										<path style="fill:#E87578;" d="M316.467,94.642c-0.723,2.36-1.728,4.49-1.728,4.49c-0.337,0.483-0.687,1.107-0.96,1.877
											c-0.459,1.292-4.208,6.809-10.709,7.784c-1.034,0.155-4.298,0.599-7.561-1.142c0,0-1.668-0.89-3.064-2.43
											c-3.316-3.659-5.914-12.373-3.194-21.131c1.09-3.509,4.152-13.363,12.788-14.799c6.987-1.161,14.157,3.763,16.274,9.445
											C319.974,83.193,318.493,88.029,316.467,94.642z"/>
										<path style="fill:#08051A;" d="M293.044,97.486c1.747,0.552,3.711,0.38,5.336-0.466c-0.069,0.909-0.576,2.104-1.263,2.703
											c-0.688,0.6-1.689,0.857-2.552,0.564C293.701,99.993,292.981,98.396,293.044,97.486z"/>
										<path style="fill:#08051A;" d="M320.749,92.921c-2.827,0.472-6.687,0.413-7.686,0.388
											c-0.119-0.003-0.195-0.116-0.151-0.227c0.291-0.736,1.089-3.193-0.162-5.428c-0.688-1.23-1.43-0.981-1.962-2.132
											c-1.177-2.545,1.845-5.082,0.983-6.957c-0.49-1.067-2.181-1.536-6.565-1.635c-9.554-0.215-12.438,1.661-15.028-0.33
											c-2.712-2.086-2.443-6.369-2.387-7.273c0.303-4.823,4.043-9.579,7.748-9.75c3.403-0.157,3.787,3.878,8.97,7.128
											c8.096,5.078,15.14,0.347,18.184,4.71c1.331,1.908,0.664,6.152-0.67,14.64C321.565,88.967,321.087,91.345,320.749,92.921z
											"/>
										
											<path style="fill:none;stroke:#08051A;stroke-width:0.778;stroke-linecap:round;stroke-linejoin:round;stroke-miterlimit:10;" d="
											M294.953,89.037c0,0-0.293,2.629-0.276,3.628c0.012,0.74-2.438,0.654-2.551,0.992c-0.113,0.339,1.295,0.804,2.367,1.394"
											/>
										<path style="fill:#E87578;" d="M314.163,93.684c-1.026,2.277-0.454,4.756,1.277,5.535c1.731,0.78,3.966-0.435,4.991-2.713
											c1.026-2.278,0.454-4.756-1.277-5.535C317.423,90.192,315.189,91.406,314.163,93.684z"/>
									</g>
									<path style="fill:#08051A;" d="M290.297,87.863c0.042,0.395-1.311,0.828-1.851,0.971c-0.544,0.144-1.93,0.43-2.089,0.064
										c-0.142-0.325,0.687-1.161,1.658-1.438C289.05,87.164,290.258,87.502,290.297,87.863z"/>
									<path style="fill:#08051A;" d="M300.547,87.771c-0.134,0.309,1.052,1.283,2.723,2.006c1.67,0.724,3.192,0.924,3.326,0.615
										c0.134-0.309-0.927-1.571-2.598-2.295C302.327,87.373,300.681,87.462,300.547,87.771z"/>
								</g>
							</g>
							
								<path style="fill:none;stroke:#08051A;stroke-width:0.778;stroke-linecap:round;stroke-linejoin:round;stroke-miterlimit:10;" d="
								M318.465,93.335c-1.084,0.474-1.935,1.451-2.258,2.589c0.192-0.224,0.54-0.298,0.807-0.173
								c0.267,0.126,0.431,0.44,0.382,0.732"/>
						</g>
					</g>
					
						<path style="fill:none;stroke:#08051A;stroke-width:0.778;stroke-linecap:round;stroke-linejoin:round;stroke-miterlimit:10;" d="
						M304.393,236.58c17.922,2.399,36.377,0.719,53.571-4.879"/>
				</g>
				<path style="fill:#E87578;" d="M312.735,130.057l-16.38,51.242c-0.782,4.12,1.923,8.095,6.044,8.877
					c3.249,0.617,6.407-0.936,7.981-3.641l-0.002,0.007l0.008-0.017c0.095-0.164,0.185-0.33,0.268-0.501
					c0.074-0.152,0.129-0.316,0.192-0.475l22.943-47.168c4.197-8.739-3.249-15.029-8.262-15.981
					C319.875,121.327,314.41,124.698,312.735,130.057z"/>
				<path style="fill:#E87578;" d="M256.334,201.765l0.014,0.027c-0.236,0.144-0.464,0.306-0.678,0.496
					c-1.94,1.72-2.118,4.686-0.398,6.625c1.377,1.553,3.551,1.973,5.359,1.198l0.001,0.003l0.065-0.029
					c0.009-0.004,0.019-0.008,0.028-0.012l46.204-20.721c0.125-0.052,0.248-0.107,0.371-0.167l0.164-0.074l-0.005-0.008
					c0.559-0.286,1.093-0.637,1.585-1.073c3.138-2.783,3.427-7.582,0.644-10.72c-2.414-2.722-6.344-3.296-9.392-1.585l-0.002-0.003
					l-0.055,0.032c-0.02,0.012-0.04,0.024-0.06,0.036L256.334,201.765z"/>
				<path style="fill:#454658;" d="M260.029,205.546c-0.102-0.402-0.368-0.709-0.706-0.973c-0.606-0.662-1.967-1.267-3.41-2.137
					c-0.945-0.57-1.767-1.431-2.812-1.826c-0.653-0.247-1.994-0.148-2.063,0.788c-0.06,0.804,1.054,1.336,0.988,2.139
					c-0.05,0.604-0.723,0.926-1.304,1.099c-1.245,0.371-2.528,0.614-3.822,0.727c-1.008,0.088-2.43-0.147-3.335,0.354
					c-0.922,0.512-0.51,1.432,0.264,1.744c-0.007,0.103-0.064,0.201-0.161,0.247c-0.123,0.058-0.266,0.05-0.4,0.077
					c-0.788,0.159-0.691,1.119-0.209,1.543c0.21,0.185,0.579,0.16,0.775,0.351c0.389,0.382,0.125,0.754,0.313,1.204
					c0.128,0.307,0.495,0.435,0.826,0.457c0.331,0.022,0.674-0.026,0.989,0.079c0.586,0.195,0.838,0.779,1.238,1.192
					c0.503,0.519,1.001,0.634,1.707,0.742c1.826,0.278,3.702,0.09,5.483-0.368C262.175,210.983,260.934,209.124,260.029,205.546z"/>
				
					<path style="fill:none;stroke:#08051A;stroke-width:0.778;stroke-linecap:round;stroke-linejoin:round;stroke-miterlimit:10;" d="
					M243.672,207.634c2.207,0.456,4.499,0.495,6.72,0.116"/>
				
					<path style="fill:none;stroke:#08051A;stroke-width:0.778;stroke-linecap:round;stroke-linejoin:round;stroke-miterlimit:10;" d="
					M243.537,210.035c2.128,0.827,4.51,0.983,6.728,0.442"/>
				
					<path style="fill:none;stroke:#08051A;stroke-width:0.778;stroke-linecap:round;stroke-linejoin:round;stroke-miterlimit:10;" d="
					M246.327,212.168c1.595,0.515,3.33,0.591,4.964,0.216"/>
				<path style="fill:#454658;" d="M254.585,202.655c0.191-0.191,2.809-1.926,4.391-2.969c0.74-0.488,1.715-0.433,2.374,0.16
					c0.847,0.762,1.84,1.86,2.662,3.358c0.764,1.392,1.155,2.72,1.357,3.793c0.172,0.915-0.312,1.823-1.17,2.186
					c-2.184,0.924-4.367,1.847-6.55,2.771"/>
				<path style="fill:#92D6AA;" d="M298.565,117.988c-6.272,4.399-11.397,12.362-24.028,39.957l-13.367-16.329
					c-0.746-0.911-1.958-1.316-3.092-1.002c-2.327,0.645-6.21,2.124-8.403,5.162c-0.62,0.859-0.659,2.011-0.201,2.966
					c3.072,6.407,15.615,32.169,19.939,34.841c4.942,3.054,9.7,0.309,11.714-1.339c2.014-1.647,15.443-23.346,15.443-23.346"/>
				
					<path style="fill:none;stroke:#08051A;stroke-width:0.778;stroke-linecap:round;stroke-linejoin:round;stroke-miterlimit:10;" d="
					M290.62,135.564c0.52,11.941,1.598,23.857,3.231,35.697"/>
				<path style="fill:#92D6AA;" d="M327.072,119.035c-7.139-1.59-14.838-4.78-29.522,56.81l-30.92,17.914
					c-1.12,0.649-1.532,2.054-0.94,3.205c1.252,2.437,3.648,6.461,6.917,9.061c0.72,0.573,1.694,0.7,2.53,0.317
					c6.188-2.833,32.985-15.208,36.465-18.605c3.938-3.844,28.44-53.075,26.349-57.015
					C335.859,126.781,327.072,119.035,327.072,119.035z"/>
				
					<path style="fill:none;stroke:#08051A;stroke-width:0.778;stroke-linecap:round;stroke-linejoin:round;stroke-miterlimit:10;" d="
					M297.55,195.686c6.677-3.331,12.546-6.48,14.052-7.95c2.118-2.067,10.184-17.262,16.862-31.479
					c-0.084,1.556,0.297,2.463,0.213,4.019"/>
				
					<path style="fill:none;stroke:#08051A;stroke-width:0.778;stroke-linecap:round;stroke-linejoin:round;stroke-miterlimit:10;" d="
					M327.072,119.035c-7.139-1.59-14.838-4.78-29.522,56.81l-3.699,2.143"/>
				<path style="fill:#92D6AA;" d="M288.32,94.909c0,0,3.799-2.587,6.357-2.244c2.558,0.343,9.697,4.553,10.063,5.377
					c0.366,0.824-1.373,5.162-0.549,7.295c0.824,2.132,1.817,2.008,1.32,2.848C305.015,109.025,289.472,114.199,288.32,94.909z"/>
				
					<path style="fill:none;stroke:#92D6AA;stroke-width:1.0224;stroke-linecap:round;stroke-linejoin:round;stroke-miterlimit:10;" d="
					M304.74,98.042c0,0,9.723-4.986,10.048-5.408"/>
				
					<path style="fill:none;stroke:#92D6AA;stroke-width:1.0224;stroke-linecap:round;stroke-linejoin:round;stroke-miterlimit:10;" d="
					M315.44,99.219c-0.871,1.789-3.134,5.753-7.703,7.767c-1.055,0.465-2.071,0.755-2.997,0.933"/>
				<path style="fill:#08051A;" d="M290.382,90.735c-0.287,0-0.502,0.315-0.502,0.731c0,0.416,0.115,0.731,0.502,0.731
					c0.387,0,0.444-0.431,0.473-0.731C290.884,91.165,290.698,90.735,290.382,90.735z"/>
				<path style="fill:#08051A;" d="M300.581,91.103c-0.314,0-0.548,0.345-0.548,0.799s0.125,0.799,0.548,0.799
					c0.423,0,0.486-0.471,0.517-0.799C301.129,91.573,300.925,91.103,300.581,91.103z"/>
			</g>
		</g>
	</g>
</g>
</svg>
